<svg width="430" height="472" viewBox="0 0 430 472" fill="none" xmlns="http://www.w3.org/2000/svg">
<circle cx="215" cy="232" r="192.5" stroke="#1D1E4E" stroke-dasharray="10 10"/>
<circle cx="215" cy="232" r="126.5" fill="white" stroke="black" stroke-dasharray="10 10"/>
<g filter="url(#filter0_d_1950_10809)">
<circle cx="215" cy="39" r="39" fill="white"/>
</g>
<g filter="url(#filter1_d_1950_10809)">
<circle cx="383" cy="324" r="39" fill="white"/>
</g>
<g filter="url(#filter2_d_1950_10809)">
<circle cx="387" cy="131" r="39" fill="white"/>
</g>
<g filter="url(#filter3_d_1950_10809)">
<circle cx="215" cy="425" r="39" fill="white"/>
</g>
<g filter="url(#filter4_d_1950_10809)">
<circle cx="43" cy="324" r="39" fill="white"/>
</g>
<g filter="url(#filter5_d_1950_10809)">
<circle cx="51" cy="131" r="39" fill="white"/>
</g>
<g filter="url(#filter6_d_1950_10809)">
<path d="M215.064 142C165.067 142 124.008 183.059 124.008 233.056C124.008 283.053 165.067 324.112 215.064 324.112C265.061 324.112 306.12 283.053 306.12 233.056C306.12 183.059 265.061 142 215.064 142ZM233.871 299.765L236.711 275.698C230.193 279.05 222.885 281.098 215.064 281.098C207.243 281.098 199.934 279.05 193.417 275.698L196.257 299.765C172.376 293.015 153.708 273.789 147.796 249.536L171.677 253.213C168.791 247.068 167.069 240.272 167.069 233.056C167.069 222.163 170.839 212.247 176.938 204.194C176.332 204.473 175.681 204.659 175.076 204.985L147.191 218.718C153.848 187.342 181.733 163.74 215.017 163.74C248.349 163.74 276.233 187.388 282.844 218.718L255.378 205.078C254.633 204.706 253.795 204.426 253.05 204.101C259.242 212.201 263.013 222.163 263.013 233.056C263.013 240.272 261.29 247.068 258.404 253.213L282.285 249.536C276.42 273.743 257.752 292.969 233.871 299.765Z" fill="#FFA51F"/>
<path d="M215.061 195.719C194.485 195.719 177.727 212.478 177.727 233.054C177.727 253.63 194.485 270.388 215.061 270.388C235.638 270.388 252.396 253.63 252.396 233.054C252.396 212.478 235.638 195.719 215.061 195.719ZM215.061 249.068C206.217 249.068 199.047 241.899 199.047 233.054C199.047 224.209 206.217 217.04 215.061 217.04C223.906 217.04 231.075 224.209 231.075 233.054C231.075 241.899 223.86 249.068 215.061 249.068Z" fill="#FFA51F"/>
<path d="M215.064 227.758C212.132 227.758 209.711 230.132 209.711 233.111C209.711 236.044 212.085 238.465 215.064 238.465C218.044 238.465 220.418 236.091 220.418 233.111C220.371 230.132 217.997 227.758 215.064 227.758Z" fill="#FFA51F"/>
</g>
<path d="M236.001 49.1971C235.88 49.6685 235.782 50.1618 235.628 50.6223C234.598 53.5385 231.736 55.3035 228.623 54.9527C225.707 54.6238 223.328 52.2558 222.933 49.2738C222.462 45.7218 224.917 42.4548 228.469 41.9066C231.967 41.3694 235.321 43.7923 235.913 47.2895C235.935 47.4101 235.968 47.5197 236.001 47.6403C236.001 48.1556 236.001 48.6709 236.001 49.1971Z" fill="#1D1E4E"/>
<path d="M195.775 36.6917C195.917 35.2007 196.608 34.1811 198 33.7426C198.362 33.6329 198.757 33.6001 199.13 33.6001C202.879 33.5891 206.628 33.5891 210.367 33.6001C210.685 33.6001 210.838 33.5014 210.992 33.2273C212.077 31.232 213.82 30.0919 215.925 29.4122C217.263 28.9846 218.633 28.7763 220.047 28.8201C220.168 28.8201 220.288 28.8201 220.475 28.8201C220.058 27.7458 219.664 26.7152 219.236 25.6957C219.104 25.3777 218.765 25.301 218.436 25.301C217.438 25.301 216.44 25.301 215.443 25.301C214.73 25.301 214.226 24.8515 214.204 24.2047C214.182 23.5798 214.664 23.0426 215.377 23.0316C216.506 22.9987 217.646 22.9768 218.776 23.0426C220.08 23.1193 220.99 23.8429 221.472 25.0598C221.922 26.189 222.349 27.3292 222.788 28.4693C222.821 28.568 222.865 28.6667 222.898 28.7324C223.194 28.3378 223.446 27.9102 223.775 27.5594C224.487 26.8139 225.397 26.5727 226.395 26.7043C227.118 26.792 227.699 27.4607 227.71 28.2172C227.732 29.3025 227.732 30.3769 227.71 31.4622C227.699 32.3064 227.053 32.9971 226.208 32.9971C225.627 32.9971 225.035 32.8655 224.443 32.7998C225.134 34.6087 225.858 36.4833 226.581 38.369C227.338 38.2484 228.072 38.1059 228.818 38.0182C230.265 37.8537 231.679 38.062 233.071 38.4677C233.674 38.6431 234.003 39.2789 233.839 39.871C233.674 40.463 233.06 40.7919 232.403 40.6603C231.865 40.5507 231.339 40.4081 230.802 40.3424C226.614 39.8052 222.536 42.4582 221.308 46.5256C221.264 46.6571 221.242 46.7887 221.198 46.9202C220.99 47.567 220.398 47.9069 219.795 47.7425C219.203 47.578 218.841 46.9641 219.006 46.3173C219.499 44.3549 220.453 42.6446 221.911 41.2633C222.613 40.5945 223.424 40.0573 224.213 39.4872C224.421 39.3338 224.487 39.2461 224.378 39.0049C224.169 38.5225 223.994 38.0182 223.775 37.4371C219.587 40.0902 217.537 43.9163 217.252 48.8388C214.675 48.8388 212.099 48.8388 209.49 48.8388C209.446 48.4441 209.424 47.9946 209.358 47.5561C208.733 43.3024 205.05 40.0793 200.752 40.0244C199.239 40.0025 197.715 40.0135 196.202 40.0025C195.128 39.9915 194.317 39.4105 194.065 38.4786C193.802 37.481 194.361 36.7355 195.391 36.7136C195.501 36.6807 195.621 36.6917 195.775 36.6917ZM214.357 47.1505C215.3 47.1614 216.101 46.3611 216.101 45.3964C216.101 44.5193 215.388 43.8067 214.511 43.7957C213.601 43.7848 212.812 44.5522 212.79 45.4841C212.768 46.394 213.48 47.1395 214.357 47.1505Z" fill="#1D1E4E"/>
<path d="M207.112 46.8678C206.925 46.8678 206.783 46.8678 206.629 46.8678C204.809 46.8678 202.989 46.8569 201.18 46.8678C200.194 46.8788 199.514 47.5475 199.547 48.4794C199.569 49.2468 200.117 49.8608 200.874 49.9594C201.049 49.9814 201.224 49.9923 201.4 49.9923C203.154 49.9923 204.897 49.9923 206.651 49.9923C206.794 49.9923 206.947 49.9923 207.101 49.9923C206.607 52.4809 204.042 55.2217 200.38 54.9805C196.883 54.7503 194.285 52.0205 194.197 48.5342C194.12 45.2234 196.664 42.2743 199.92 41.9015C203.253 41.5069 206.443 43.6885 207.112 46.8678Z" fill="#1D1E4E"/>
<path d="M379.068 142.965C378.837 139.719 377.318 137.365 374.28 136.264C371.416 135.22 368.854 135.951 366.605 138.095C366.593 137.945 366.57 137.829 366.57 137.713C366.57 132.762 366.547 127.8 366.582 122.849C366.616 118.362 370.048 115 374.524 115C383.695 115 392.865 115 402.036 115C402.848 115 403.022 115.186 403.01 115.997C402.975 117.643 402.013 118.872 400.425 119.278C400.332 119.301 400.239 119.336 400.112 119.371C402.268 123.835 403.057 128.507 402.419 133.388C403.312 133.388 404.181 133.388 405.074 133.388C405.074 134.524 405.074 135.684 405.074 136.913C404.007 136.797 402.883 137.226 401.886 136.356C401.828 136.542 401.804 136.704 401.747 136.855C401.086 138.698 400.413 140.553 399.741 142.397C399.59 142.826 399.289 142.988 398.836 142.977C392.367 142.965 385.897 142.977 379.44 142.965C379.312 142.988 379.196 142.977 379.068 142.965ZM384.947 138.942C384.958 138.803 384.97 138.71 384.97 138.629C384.97 132.356 384.97 126.072 384.981 119.8C384.981 119.475 384.889 119.383 384.564 119.383C382.384 119.394 380.193 119.394 378.013 119.394C376.611 119.394 375.938 120.067 375.938 121.481C375.938 123.916 375.938 126.351 375.938 128.785C375.938 129.504 375.903 129.4 376.576 129.411C379.196 129.435 380.924 131.197 380.935 133.829C380.935 135.382 380.935 136.936 380.935 138.478C380.935 138.629 380.947 138.779 380.958 138.942C382.292 138.942 383.602 138.942 384.947 138.942ZM394.002 138.942C394.002 132.414 394.002 125.933 394.002 119.417C391.428 119.417 388.877 119.417 386.303 119.417C386.303 123.081 386.303 126.733 386.303 130.42C387.66 130.42 388.981 130.42 390.315 130.42C390.605 130.42 390.894 130.409 391.184 130.455C391.868 130.559 392.355 131.127 392.39 131.8C392.425 132.484 392.007 133.075 391.335 133.272C391.207 133.307 391.08 133.342 390.964 133.377C390.964 135.232 390.964 137.087 390.964 138.953C391.973 138.942 392.958 138.942 394.002 138.942ZM395.347 119.394C395.347 122.13 395.347 124.82 395.347 127.533C397.283 127.533 399.207 127.533 401.132 127.533C401.144 127.452 401.155 127.417 401.155 127.371C400.842 124.623 399.984 122.038 398.732 119.591C398.686 119.51 398.57 119.406 398.477 119.406C397.445 119.394 396.402 119.394 395.347 119.394ZM397.839 130.71C397.538 130.71 397.236 130.698 396.923 130.71C396.552 130.733 396.332 130.965 396.32 131.324C396.309 131.684 396.518 131.962 396.889 131.974C397.526 132.009 398.164 132.009 398.79 131.962C399.161 131.939 399.347 131.661 399.323 131.29C399.3 130.942 399.091 130.722 398.744 130.698C398.442 130.687 398.141 130.71 397.839 130.71Z" fill="#1D1E4E"/>
<path d="M366.003 142.977C365.888 139.835 368.705 137.087 371.951 137.145C375.569 137.203 377.829 140.369 377.69 142.977C373.806 142.977 369.922 142.977 366.003 142.977Z" fill="#1D1E4E"/>
<path d="M407.798 142.964C405.502 142.964 403.241 142.964 400.992 142.964C401.665 141.109 402.349 139.265 403.021 137.399C405.363 137.364 407.983 140.355 407.798 142.964Z" fill="#1D1E4E"/>
<path d="M368.227 144.332C370.65 144.332 373.073 144.332 375.496 144.332C375.183 145.828 373.49 147.022 371.751 146.999C370.128 146.964 368.458 145.712 368.227 144.332Z" fill="#1D1E4E"/>
<path d="M398.062 144.309C400.486 144.309 402.92 144.309 405.344 144.309C405.204 145.584 403.547 146.906 401.97 146.987C400.173 147.091 398.399 145.874 398.062 144.309Z" fill="#1D1E4E"/>
<path d="M353.084 326.003C354.207 326.003 355.229 326.02 356.252 326.003C356.822 325.986 357.241 325.718 357.459 325.165C357.66 324.662 357.576 324.159 357.174 323.841C356.872 323.606 356.436 323.455 356.034 323.438C355.079 323.388 354.123 323.422 353 323.422C353.101 322.248 353.05 321.125 353.302 320.069C353.671 318.493 355.112 317.454 356.772 317.354C356.922 317.337 357.073 317.32 357.207 317.354C358.817 317.639 359.973 316.985 361.046 315.778C362.722 313.9 364.55 312.191 366.343 310.414C367.952 308.821 369.88 308 372.143 308C377.205 308 382.268 308 387.33 308C389.61 308 391.571 308.838 393.18 310.447C395.376 312.627 397.555 314.839 399.768 317.018C399.986 317.236 400.321 317.421 400.623 317.454C403.791 317.823 406.892 318.41 409.96 319.265C412.474 319.969 413.815 322.114 413.446 324.88C412.441 324.88 411.418 324.88 410.412 324.88C409.675 324.88 409.138 325.299 409.038 325.919C408.887 326.724 409.44 327.411 410.295 327.445C411.133 327.478 411.971 327.445 412.809 327.461C413.027 327.461 413.262 327.478 413.43 327.495C413.43 328.92 413.58 330.294 413.396 331.619C413.044 334.032 410.53 335.725 408.099 335.357C407.445 335.256 407.043 334.82 407.009 334.049C406.942 332.624 406.607 331.283 405.87 330.043C404.093 327.109 400.64 325.651 397.321 326.439C394.018 327.227 391.588 330.11 391.336 333.513C391.32 333.747 391.32 333.982 391.286 334.2C391.185 334.887 390.783 335.29 390.096 335.357C389.727 335.39 389.342 335.373 388.973 335.373C384.665 335.373 380.357 335.373 376.049 335.373C374.825 335.373 374.423 334.988 374.356 333.798C374.104 329.507 370.768 326.271 366.578 326.238C362.354 326.204 358.968 329.439 358.683 333.748C358.599 335.038 358.196 335.407 356.922 335.357C354.944 335.273 353.386 333.915 353.235 331.937C353.101 330.244 353.184 328.551 353.168 326.841C353.084 326.59 353.084 326.338 353.084 326.003ZM370.199 317.303C374.255 317.303 378.194 317.303 382.167 317.303C382.167 315.04 382.167 312.828 382.167 310.548C381.882 310.548 381.664 310.548 381.43 310.548C379.217 310.548 377.004 310.548 374.775 310.548C374.104 310.548 373.283 310.347 372.83 310.665C372.378 310.984 372.277 311.839 372.026 312.459C371.422 314.051 370.836 315.661 370.199 317.303ZM396.415 317.32C394.722 315.627 393.096 314.068 391.554 312.425C389.66 310.414 387.28 310.464 384.849 310.615C384.849 312.878 384.849 315.091 384.849 317.32C388.671 317.32 392.476 317.32 396.415 317.32ZM386.727 319.734C386.408 319.734 386.106 319.717 385.788 319.751C385.084 319.818 384.564 320.371 384.564 321.025C384.564 321.662 385.034 322.232 385.721 322.299C386.375 322.366 387.062 322.366 387.716 322.299C388.436 322.232 388.889 321.662 388.855 320.974C388.822 320.287 388.336 319.801 387.598 319.751C387.313 319.717 387.028 319.734 386.727 319.734Z" fill="#1D1E4E"/>
<path d="M366.447 340C363.179 340 360.547 337.368 360.547 334.083C360.53 330.797 363.195 328.132 366.498 328.149C369.75 328.165 372.398 330.831 372.381 334.099C372.365 337.368 369.716 340 366.447 340Z" fill="#1D1E4E"/>
<path d="M399.113 340C395.844 340 393.212 337.368 393.195 334.099C393.195 330.797 395.844 328.148 399.129 328.148C402.381 328.165 405.013 330.814 405.013 334.082C405.013 337.368 402.381 340 399.113 340Z" fill="#1D1E4E"/>
<path d="M232.187 433.326C232.104 433.252 231.994 433.197 231.948 433.106C231.003 431.297 229.561 430.076 227.588 429.544C224.155 428.617 220.63 430.434 219.381 433.757C219.28 434.023 219.17 434.134 218.876 434.115C218.307 434.088 217.729 434.115 217.16 434.106C216.958 434.106 216.866 434.161 216.866 434.372C216.866 434.547 216.829 434.712 216.802 434.886C216.71 435.465 216.196 435.859 215.654 435.786C215.067 435.703 214.681 435.171 214.764 434.565C215.113 432.096 214.635 429.792 213.286 427.69C210.147 422.769 203.473 421.613 198.856 425.165C198.58 425.376 198.287 425.569 197.919 425.514C197.47 425.45 197.158 425.193 197.047 424.752C196.928 424.302 197.084 423.935 197.442 423.66C198.424 422.88 199.507 422.264 200.682 421.824C200.802 421.778 200.912 421.714 201.04 421.695C201.545 421.631 201.692 421.347 201.747 420.851C202.023 418.134 202.344 415.426 202.656 412.718C202.72 412.185 202.775 411.653 202.84 411.093C202.702 411.075 202.583 411.056 202.454 411.038C201.94 410.946 201.582 410.515 201.6 409.991C201.619 409.477 202.004 409.064 202.518 409.009C202.601 409 202.674 409 202.757 409C207.879 409 212.992 409 218.114 409C218.803 409 219.244 409.367 219.28 409.945C219.317 410.496 218.95 410.964 218.408 411.038C218.142 411.075 217.867 411.065 217.536 411.084C217.665 411.589 217.775 412.075 217.903 412.552C218.72 415.784 219.546 419.015 220.354 422.246C220.419 422.494 220.51 422.567 220.767 422.567C222.346 422.558 223.925 422.558 225.504 422.558C225.614 422.558 225.724 422.558 225.862 422.558C225.862 421.438 225.862 420.364 225.862 419.281C225.862 418.923 225.853 418.565 225.926 418.216C226.128 417.133 227.037 416.353 228.139 416.298C228.497 416.279 228.845 416.279 229.203 416.298C229.763 416.325 230.176 416.748 230.195 417.289C230.213 417.812 229.837 418.262 229.295 418.326C228.983 418.363 228.653 418.345 228.331 418.354C228.093 418.354 227.927 418.464 227.927 418.721C227.927 419.979 227.927 421.246 227.927 422.549C228.166 422.549 228.377 422.549 228.598 422.549C229.35 422.549 230.112 422.577 230.865 422.54C231.498 422.512 231.948 422.733 232.187 423.338C232.187 426.671 232.187 430.003 232.187 433.326ZM204.905 411.065C204.52 414.416 204.143 417.721 203.767 421.053C203.969 421.053 204.125 421.062 204.281 421.053C206.411 420.943 208.43 421.356 210.312 422.338C210.762 422.577 211.202 422.558 211.68 422.531C211.68 418.703 211.68 414.884 211.68 411.065C209.421 411.065 207.182 411.065 204.905 411.065ZM218.298 422.531C218.28 422.448 218.271 422.393 218.252 422.347C217.756 420.383 217.261 418.418 216.765 416.454C216.343 414.765 215.911 413.076 215.48 411.396C215.452 411.277 215.342 411.084 215.26 411.075C214.773 411.047 214.287 411.056 213.782 411.056C213.782 414.902 213.782 418.712 213.782 422.531C215.287 422.531 216.774 422.531 218.298 422.531Z" fill="#1D1E4E"/>
<path d="M204.913 425.176C209.282 425.185 212.807 428.737 212.798 433.107C212.789 437.458 209.255 440.992 204.904 441.001C200.534 441.011 196.982 437.431 197 433.043C197.018 428.701 200.571 425.167 204.913 425.176ZM204.913 436.871C207.006 436.861 208.686 435.163 208.676 433.079C208.667 430.996 206.969 429.297 204.885 429.307C202.802 429.316 201.113 431.014 201.122 433.098C201.131 435.182 202.838 436.88 204.913 436.871Z" fill="#1D1E4E"/>
<path d="M225.813 440.998C223.16 441.007 220.994 438.859 220.984 436.206C220.975 433.544 223.105 431.387 225.758 431.36C228.411 431.332 230.586 433.48 230.605 436.133C230.614 438.823 228.484 440.989 225.813 440.998ZM225.785 437.207C226.354 437.216 226.823 436.757 226.823 436.188C226.832 435.628 226.364 435.16 225.804 435.151C225.244 435.142 224.766 435.61 224.766 436.17C224.757 436.739 225.216 437.207 225.785 437.207Z" fill="#1D1E4E"/>
<path d="M206.621 433.088C206.621 434.042 205.84 434.814 204.886 434.804C203.94 434.795 203.188 434.033 203.188 433.088C203.188 432.133 203.968 431.362 204.922 431.371C205.868 431.38 206.621 432.142 206.621 433.088Z" fill="#1D1E4E"/>
<path d="M15 308C27.7295 308 40.4758 308 53.2388 308C53.2388 315.178 53.2388 322.306 53.2388 329.501C52.9873 329.518 52.7525 329.535 52.5009 329.535C40.2577 329.535 27.9978 329.535 15.7547 329.535C15.5031 329.535 15.2516 329.568 15 329.585C15 322.407 15 315.195 15 308Z" fill="#1D1E4E"/>
<path d="M71.0685 334.935C68.8882 334.935 66.7414 334.935 64.5444 334.935C64.6786 336.578 64.209 337.97 62.9343 339.01C62.1125 339.698 61.1566 340 60.1 339.983C58.1545 339.949 55.6555 338.406 55.8232 334.968C52.3516 334.968 48.8631 334.968 45.3411 334.968C45.425 336.511 45.0224 337.836 43.8652 338.876C43.0099 339.647 41.9868 340.016 40.8631 339.983C38.5655 339.916 36.4355 338.088 36.6032 334.985C35.1609 334.985 33.7017 334.985 32.2594 334.985C32.4439 338.339 30.012 339.966 27.9324 340C25.8527 340.016 23.3202 338.39 23.5215 334.968C22.2469 334.968 20.989 334.968 19.6641 334.968C19.6641 333.677 19.6641 332.453 19.6641 331.178C31.4208 331.178 43.1776 331.178 54.9847 331.178C54.9847 325.643 54.9847 320.159 54.9847 314.625C55.2195 314.608 55.404 314.591 55.5717 314.591C59.2614 314.591 62.9511 314.591 66.6408 314.574C67.0266 314.574 67.211 314.675 67.3787 315.044C68.5527 317.71 69.7435 320.377 70.9343 323.044C71.0181 323.245 71.0852 323.463 71.0852 323.664C71.102 327.337 71.0852 331.01 71.0852 334.683C71.102 334.75 71.0852 334.801 71.0685 334.935ZM57.7687 323.211C61.3243 323.211 64.796 323.211 68.2844 323.211C68.2676 323.111 68.2676 323.044 68.2341 322.977C67.4291 321.132 66.624 319.304 65.8358 317.459C65.7016 317.14 65.4668 317.056 65.1482 317.056C62.8505 317.056 60.5528 317.073 58.2383 317.056C57.8861 317.056 57.7687 317.174 57.7687 317.526C57.7855 318.817 57.7687 320.126 57.7687 321.417C57.7687 322.004 57.7687 322.591 57.7687 323.211ZM29.5927 335.572C29.5927 334.633 28.8213 333.861 27.8821 333.878C26.9596 333.878 26.1881 334.666 26.1881 335.589C26.1881 336.562 26.9596 337.316 27.9324 337.299C28.8716 337.283 29.5927 336.528 29.5927 335.572ZM40.9973 337.299C41.9365 337.283 42.6912 336.528 42.6912 335.589C42.6912 334.666 41.9197 333.878 40.9805 333.878C40.0413 333.878 39.2363 334.683 39.2531 335.622C39.2866 336.562 40.0413 337.299 40.9973 337.299ZM60.1838 337.299C61.1398 337.299 61.8945 336.562 61.8945 335.606C61.9113 334.65 61.123 333.845 60.167 333.861C59.2446 333.861 58.4731 334.65 58.4731 335.589C58.4899 336.545 59.2278 337.299 60.1838 337.299Z" fill="#1D1E4E"/>
<path d="M43.6531 131.53C43.9731 130.232 44.302 128.961 44.6042 127.69C44.8442 126.668 45.4042 126.197 46.4531 126.197C48.4176 126.197 50.3821 126.214 52.3377 126.188C53.1466 126.179 53.68 126.525 53.9822 127.237C54.32 128.01 54.6222 128.792 54.9334 129.574C55.36 130.632 55.7867 131.69 56.1956 132.757C56.2578 132.926 56.3023 133.121 56.3023 133.299C56.3112 134.455 56.3112 135.61 56.3023 136.766C56.3023 137.788 55.6356 138.455 54.6134 138.455C48.6399 138.455 42.6664 138.455 36.684 138.455C35.6884 138.455 35.0128 137.77 35.004 136.783C35.004 135.583 34.9951 134.383 35.004 133.183C35.004 132.214 35.6884 131.53 36.6573 131.521C38.8618 131.521 41.0663 131.521 43.2797 131.521C43.4042 131.53 43.5108 131.53 43.6531 131.53ZM49.9466 128.33C49.9377 128.41 49.9288 128.437 49.9288 128.472C49.9288 130.908 49.9288 133.335 49.9288 135.77C49.9288 136.135 50.151 136.33 50.5599 136.33C51.5555 136.33 52.5511 136.33 53.5555 136.33C53.9911 136.33 54.1867 136.135 54.1867 135.699C54.1956 135.13 54.1956 134.57 54.1867 134.001C54.1867 133.815 54.1956 133.61 54.1333 133.45C53.4755 131.859 52.8177 130.277 52.1333 128.703C52.0622 128.543 51.8311 128.374 51.6622 128.357C51.0933 128.303 50.5244 128.33 49.9466 128.33ZM48.8532 128.33C48.2843 128.33 47.7421 128.303 47.1998 128.348C47.0398 128.365 46.8087 128.561 46.7554 128.721C46.4442 129.779 46.1687 130.854 45.8931 131.93C45.8042 132.268 46.0265 132.579 46.3642 132.588C47.182 132.606 47.9998 132.597 48.8176 132.597C48.8354 132.543 48.8443 132.508 48.8443 132.481C48.8532 131.112 48.8532 129.743 48.8532 128.33ZM38.204 135.015C38.204 134.748 38.2129 134.481 38.204 134.215C38.1863 133.877 37.9729 133.663 37.6618 133.663C37.3596 133.672 37.1462 133.886 37.1462 134.232C37.1373 134.757 37.1373 135.272 37.1462 135.797C37.1551 136.143 37.3596 136.339 37.6796 136.339C37.9907 136.339 38.1863 136.143 38.204 135.815C38.2129 135.539 38.204 135.272 38.204 135.015ZM40.3374 134.997C40.3374 134.73 40.3463 134.463 40.3374 134.197C40.3196 133.877 40.1152 133.663 39.8219 133.655C39.5107 133.646 39.2885 133.859 39.2796 134.197C39.2707 134.73 39.2707 135.263 39.2796 135.797C39.2885 136.126 39.4841 136.321 39.7952 136.33C40.1152 136.339 40.3285 136.143 40.3374 135.797C40.3463 135.53 40.3374 135.263 40.3374 134.997ZM42.4619 135.006C42.4619 134.739 42.4708 134.472 42.4619 134.206C42.4441 133.868 42.2219 133.655 41.9197 133.663C41.6263 133.672 41.413 133.877 41.4041 134.206C41.3952 134.739 41.3952 135.272 41.4041 135.797C41.413 136.117 41.6352 136.321 41.9286 136.321C42.2219 136.321 42.4441 136.117 42.4619 135.797C42.4797 135.53 42.4619 135.263 42.4619 135.006Z" fill="#1D1E4E"/>
<path d="M46.9773 139.531C49.724 139.531 52.4796 139.522 55.2264 139.531C57.3598 139.54 59.022 141.265 58.9598 143.38C58.9065 145.318 57.3242 146.927 55.3775 146.989C54.6752 147.007 53.9819 146.998 53.2797 146.998C48.4529 146.998 43.635 146.998 38.8082 146.998C36.9059 146.998 35.3503 145.691 35.057 143.878C34.6925 141.602 36.3992 139.558 38.7104 139.54C41.4749 139.522 44.2305 139.531 46.9773 139.531ZM41.4038 143.256C41.4038 142.385 40.6838 141.674 39.8126 141.665C38.9326 141.665 38.2037 142.394 38.2126 143.274C38.2215 144.136 38.9415 144.856 39.8038 144.865C40.6749 144.865 41.4038 144.136 41.4038 143.256ZM55.7775 143.282C55.7864 142.411 55.0753 141.682 54.213 141.674C53.333 141.656 52.5952 142.376 52.5863 143.256C52.5774 144.127 53.2885 144.856 54.1508 144.874C55.0308 144.874 55.7686 144.154 55.7775 143.282ZM46.195 143.256C46.195 142.385 45.475 141.665 44.6128 141.665C43.7327 141.656 43.0038 142.385 43.0038 143.274C43.0038 144.154 43.7416 144.874 44.6217 144.865C45.4839 144.856 46.195 144.127 46.195 143.256ZM50.9774 143.265C50.9774 142.394 50.2662 141.674 49.404 141.665C48.524 141.656 47.7862 142.376 47.7862 143.256C47.7862 144.118 48.4973 144.847 49.3596 144.856C50.2485 144.874 50.9774 144.145 50.9774 143.265Z" fill="#1D1E4E"/>
<path d="M66.655 128.837C65.695 128.971 64.7083 128.606 63.8194 129.193C63.7749 129.095 63.7305 129.015 63.7038 128.926C62.4149 125.362 61.126 121.797 59.8371 118.233C59.4371 117.13 59.7393 116.117 60.6549 115.468C61.5438 114.828 62.7349 114.846 63.5972 115.513C64.0505 115.859 64.3083 116.33 64.415 116.881C65.0905 120.473 65.7572 124.055 66.4239 127.646C66.5039 128.037 66.575 128.437 66.655 128.837ZM62.6905 117.681C62.6994 117.388 62.4682 117.148 62.1749 117.139C61.8816 117.13 61.6416 117.361 61.6327 117.655C61.6238 117.939 61.8549 118.188 62.1482 118.197C62.4327 118.206 62.6816 117.966 62.6905 117.681Z" fill="#1D1E4E"/>
<path d="M58.4648 117.324C58.8115 118.391 59.1492 119.44 59.4959 120.507C58.6959 121.013 57.8781 121.529 57.0692 122.044C56.1358 122.64 55.1936 123.235 54.2602 123.822C53.8069 124.107 53.4335 124.453 53.2202 124.951C53.1846 125.031 53.0691 125.076 52.9891 125.12C52.9535 125.138 52.9002 125.12 52.8558 125.12C50.8379 125.12 48.8201 125.12 46.7578 125.12C47.1045 124.071 47.4156 123.04 48.109 122.169C48.5801 121.573 49.1579 121.129 49.8601 120.835C52.6602 119.689 55.4514 118.542 58.2514 117.395C58.3403 117.369 58.447 117.333 58.4648 117.324Z" fill="#1D1E4E"/>
<path d="M61.7587 137.397C61.2165 137.397 60.6743 137.397 60.132 137.397C59.8742 137.397 59.6787 137.317 59.5631 137.077C59.4476 136.846 59.5276 136.651 59.6698 136.464C61.2343 134.384 62.7899 132.295 64.3632 130.215C64.4699 130.073 64.701 129.948 64.8877 129.939C65.3855 129.904 65.8833 129.921 66.3811 129.93C66.71 129.939 66.95 130.117 66.95 130.41C66.95 131.682 67.0122 132.97 66.8878 134.233C66.71 136.011 65.1455 137.335 63.3677 137.388C62.8165 137.406 62.2832 137.397 61.7587 137.397Z" fill="#1D1E4E"/>
<defs>
<filter id="filter0_d_1950_10809" x="172" y="0" width="86" height="86" filterUnits="userSpaceOnUse" color-interpolation-filters="sRGB">
<feFlood flood-opacity="0" result="BackgroundImageFix"/>
<feColorMatrix in="SourceAlpha" type="matrix" values="0 0 0 0 0 0 0 0 0 0 0 0 0 0 0 0 0 0 127 0" result="hardAlpha"/>
<feOffset dy="4"/>
<feGaussianBlur stdDeviation="2"/>
<feComposite in2="hardAlpha" operator="out"/>
<feColorMatrix type="matrix" values="0 0 0 0 0 0 0 0 0 0 0 0 0 0 0 0 0 0 0.25 0"/>
<feBlend mode="normal" in2="BackgroundImageFix" result="effect1_dropShadow_1950_10809"/>
<feBlend mode="normal" in="SourceGraphic" in2="effect1_dropShadow_1950_10809" result="shape"/>
</filter>
<filter id="filter1_d_1950_10809" x="340" y="285" width="86" height="86" filterUnits="userSpaceOnUse" color-interpolation-filters="sRGB">
<feFlood flood-opacity="0" result="BackgroundImageFix"/>
<feColorMatrix in="SourceAlpha" type="matrix" values="0 0 0 0 0 0 0 0 0 0 0 0 0 0 0 0 0 0 127 0" result="hardAlpha"/>
<feOffset dy="4"/>
<feGaussianBlur stdDeviation="2"/>
<feComposite in2="hardAlpha" operator="out"/>
<feColorMatrix type="matrix" values="0 0 0 0 0 0 0 0 0 0 0 0 0 0 0 0 0 0 0.25 0"/>
<feBlend mode="normal" in2="BackgroundImageFix" result="effect1_dropShadow_1950_10809"/>
<feBlend mode="normal" in="SourceGraphic" in2="effect1_dropShadow_1950_10809" result="shape"/>
</filter>
<filter id="filter2_d_1950_10809" x="344" y="92" width="86" height="86" filterUnits="userSpaceOnUse" color-interpolation-filters="sRGB">
<feFlood flood-opacity="0" result="BackgroundImageFix"/>
<feColorMatrix in="SourceAlpha" type="matrix" values="0 0 0 0 0 0 0 0 0 0 0 0 0 0 0 0 0 0 127 0" result="hardAlpha"/>
<feOffset dy="4"/>
<feGaussianBlur stdDeviation="2"/>
<feComposite in2="hardAlpha" operator="out"/>
<feColorMatrix type="matrix" values="0 0 0 0 0 0 0 0 0 0 0 0 0 0 0 0 0 0 0.25 0"/>
<feBlend mode="normal" in2="BackgroundImageFix" result="effect1_dropShadow_1950_10809"/>
<feBlend mode="normal" in="SourceGraphic" in2="effect1_dropShadow_1950_10809" result="shape"/>
</filter>
<filter id="filter3_d_1950_10809" x="172" y="386" width="86" height="86" filterUnits="userSpaceOnUse" color-interpolation-filters="sRGB">
<feFlood flood-opacity="0" result="BackgroundImageFix"/>
<feColorMatrix in="SourceAlpha" type="matrix" values="0 0 0 0 0 0 0 0 0 0 0 0 0 0 0 0 0 0 127 0" result="hardAlpha"/>
<feOffset dy="4"/>
<feGaussianBlur stdDeviation="2"/>
<feComposite in2="hardAlpha" operator="out"/>
<feColorMatrix type="matrix" values="0 0 0 0 0 0 0 0 0 0 0 0 0 0 0 0 0 0 0.25 0"/>
<feBlend mode="normal" in2="BackgroundImageFix" result="effect1_dropShadow_1950_10809"/>
<feBlend mode="normal" in="SourceGraphic" in2="effect1_dropShadow_1950_10809" result="shape"/>
</filter>
<filter id="filter4_d_1950_10809" x="0" y="285" width="86" height="86" filterUnits="userSpaceOnUse" color-interpolation-filters="sRGB">
<feFlood flood-opacity="0" result="BackgroundImageFix"/>
<feColorMatrix in="SourceAlpha" type="matrix" values="0 0 0 0 0 0 0 0 0 0 0 0 0 0 0 0 0 0 127 0" result="hardAlpha"/>
<feOffset dy="4"/>
<feGaussianBlur stdDeviation="2"/>
<feComposite in2="hardAlpha" operator="out"/>
<feColorMatrix type="matrix" values="0 0 0 0 0 0 0 0 0 0 0 0 0 0 0 0 0 0 0.25 0"/>
<feBlend mode="normal" in2="BackgroundImageFix" result="effect1_dropShadow_1950_10809"/>
<feBlend mode="normal" in="SourceGraphic" in2="effect1_dropShadow_1950_10809" result="shape"/>
</filter>
<filter id="filter5_d_1950_10809" x="8" y="92" width="86" height="86" filterUnits="userSpaceOnUse" color-interpolation-filters="sRGB">
<feFlood flood-opacity="0" result="BackgroundImageFix"/>
<feColorMatrix in="SourceAlpha" type="matrix" values="0 0 0 0 0 0 0 0 0 0 0 0 0 0 0 0 0 0 127 0" result="hardAlpha"/>
<feOffset dy="4"/>
<feGaussianBlur stdDeviation="2"/>
<feComposite in2="hardAlpha" operator="out"/>
<feColorMatrix type="matrix" values="0 0 0 0 0 0 0 0 0 0 0 0 0 0 0 0 0 0 0.25 0"/>
<feBlend mode="normal" in2="BackgroundImageFix" result="effect1_dropShadow_1950_10809"/>
<feBlend mode="normal" in="SourceGraphic" in2="effect1_dropShadow_1950_10809" result="shape"/>
</filter>
<filter id="filter6_d_1950_10809" x="120.008" y="142" width="190.109" height="190.113" filterUnits="userSpaceOnUse" color-interpolation-filters="sRGB">
<feFlood flood-opacity="0" result="BackgroundImageFix"/>
<feColorMatrix in="SourceAlpha" type="matrix" values="0 0 0 0 0 0 0 0 0 0 0 0 0 0 0 0 0 0 127 0" result="hardAlpha"/>
<feOffset dy="4"/>
<feGaussianBlur stdDeviation="2"/>
<feComposite in2="hardAlpha" operator="out"/>
<feColorMatrix type="matrix" values="0 0 0 0 0 0 0 0 0 0 0 0 0 0 0 0 0 0 0.25 0"/>
<feBlend mode="normal" in2="BackgroundImageFix" result="effect1_dropShadow_1950_10809"/>
<feBlend mode="normal" in="SourceGraphic" in2="effect1_dropShadow_1950_10809" result="shape"/>
</filter>
</defs>
</svg>
