<svg width="160" height="160" viewBox="0 0 160 160" fill="none" xmlns="http://www.w3.org/2000/svg">
<path d="M29.983 0C30.8177 0 31.6525 0 32.4872 0C33.6976 1.00169 35.0332 1.96164 36.1601 3.04681C39.6243 6.42751 43.0467 9.84996 46.4274 13.3141C47.0117 13.8985 47.4708 14.0654 48.3056 13.6898C67.5464 4.29892 87.5385 2.54597 107.656 9.80823C135.703 19.8669 152.69 39.9842 158.742 69.2002C159.326 72.0383 159.577 74.9599 159.994 77.8398C159.994 81.0535 159.994 84.309 159.994 87.5228C159.869 88.5245 159.744 89.5679 159.619 90.5696C157.448 109.56 149.56 125.712 135.703 138.901C109.534 163.777 69.2994 167.032 39.4573 146.664C7.44493 124.836 -3.53194 83.3073 13.622 48.4986C14.0811 47.6221 14.0394 47.0795 13.2881 46.37C9.44831 42.6136 5.69197 38.8155 1.89389 35.0175C-1.2364 31.8872 -0.401656 28.1308 3.77206 26.5866C8.86399 24.6667 13.9977 22.8302 19.0896 20.8268C19.7991 20.5347 20.5504 19.8251 20.8008 19.1156C22.679 14.2741 24.5154 9.39085 26.2266 4.50761C26.9362 2.42075 27.9796 0.834743 29.983 0ZM56.653 38.3982C81.5283 24.2075 110.619 32.8471 124.935 53.5487C138.792 73.5826 136.58 100.712 119.384 118.533C102.397 136.147 75.1008 139.11 54.4409 125.504C44.2988 118.826 37.287 109.602 33.7393 97.9988C29.3569 83.6829 31.0264 69.9514 38.3722 56.7625C37.8296 56.8042 37.4122 56.8042 37.0366 56.8877C34.4906 57.3468 31.9029 57.7642 29.3569 58.3068C26.9779 58.8076 24.9328 58.3902 23.305 56.4703C22.679 55.7191 22.0947 54.9261 21.3434 54.0078C8.69704 80.5527 14.2481 116.321 42.3372 137.148C70.3011 157.892 108.24 154.302 132.281 128.968C155.445 104.552 156.78 66.1951 135.161 39.859C112.873 12.6464 77.7303 9.76649 53.9401 21.4946C54.6914 22.0372 55.3174 22.4128 55.9017 22.8719C58.2808 24.7084 58.9068 27.0457 58.1556 29.9255C57.5295 32.5967 57.1956 35.3931 56.653 38.3982ZM50.0585 56.679C37.5791 71.5374 36.7444 96.7884 53.8984 113.191C70.5097 129.051 97.0546 128.425 113.04 111.689C129.15 94.8268 128.483 68.3654 111.454 52.2549C94.5503 36.2696 70.1341 38.5234 56.7782 50.0428C57.0704 50.3767 57.3625 50.7523 57.6964 51.0445C60.9102 54.2583 64.124 57.4303 67.296 60.6858C68.1725 61.5623 68.715 61.5623 69.7585 60.978C78.9406 55.8443 88.1646 55.8443 96.8876 61.7292C105.527 67.5724 109.242 76.0451 107.864 86.3959C106.278 98.0405 96.7207 107.014 85.1595 108.057C73.3479 109.101 62.3293 101.964 58.6981 90.6948C56.2774 83.3073 57.1539 76.212 61.1189 69.5341C61.4528 68.9915 61.9954 68.5324 61.2441 67.7811C57.4878 64.15 53.8149 60.4354 50.0585 56.679ZM75.3512 68.6576C75.7686 69.075 76.1443 69.4923 76.5199 69.9097C79.6084 72.9982 82.7387 76.0868 85.7855 79.1753C87.8724 81.3039 87.9559 84.0586 86.036 86.0202C84.1161 87.9819 81.2779 87.9401 79.1076 85.7698C76.5616 83.2656 74.0157 80.7196 71.5114 78.1319C70.5932 77.172 69.7585 76.0868 68.7985 74.9599C64.8335 82.0552 66.8786 90.8617 73.2644 95.578C79.6919 100.336 88.8323 99.5848 94.2999 93.7833C99.9344 87.8567 100.268 78.8832 95.1347 72.5391C90.3349 66.6959 81.3197 64.9012 75.3512 68.6576ZM46.803 40.1511C47.4291 36.6869 47.9717 33.5149 48.5977 30.3846C48.8064 29.3412 48.556 28.6734 47.8047 27.9221C43.2136 23.4145 38.6643 18.8235 34.115 14.2741C33.7811 13.9402 33.4472 13.6898 32.988 13.2724C31.8611 16.3192 30.7342 19.2408 29.6908 22.1624C29.5656 22.4963 29.7743 23.0806 30.0247 23.3728C35.534 28.8821 41.0433 34.3914 46.803 40.1511ZM39.9164 46.8291C39.7912 46.5786 39.7912 46.4534 39.7077 46.4117C34.2819 40.9859 28.8561 35.5183 23.3885 30.0925C23.1381 29.8421 22.6372 29.5916 22.3451 29.6751C19.34 30.7185 16.3767 31.8454 13.3299 32.9723C13.5386 33.2645 13.5803 33.4314 13.7055 33.5149C18.5887 38.3982 23.472 43.2814 28.397 48.1646C28.7309 48.4985 29.4404 48.7072 29.8995 48.6238C33.1967 48.1229 36.494 47.4551 39.9164 46.8291Z" fill="#1D1E4E"/>
</svg>
