<svg width="35" height="24" viewBox="0 0 35 24" fill="none" xmlns="http://www.w3.org/2000/svg">
<path d="M0 18.5824C0 18.1822 0 17.782 0 17.3818C0.0200854 17.2951 0.053561 17.215 0.0669512 17.1283C0.495439 14.287 2.85212 12.1327 5.68416 11.9926C8.58984 11.8459 11.1474 13.7201 11.8571 16.5347C11.9776 17.0016 12.0177 17.4885 12.0981 17.9621C12.7676 17.9621 13.4438 17.9621 14.1736 17.9621C14.0865 17.3551 14.0531 16.7748 13.9058 16.2212C13.0354 12.9997 10.9666 10.9854 7.71278 10.1717C6.76877 9.93829 5.80467 10.0317 4.85396 9.97831C2.89229 9.86492 1.42606 8.93782 0.53561 7.18366C0.2745 6.67008 0.174073 6.07647 0 5.51621C0 5.24941 0 4.98262 0 4.71583C0.267805 4.13555 0.729769 3.96881 1.35242 3.97548C3.843 3.99549 6.32689 3.98882 8.81748 3.98215C9.21249 3.98215 9.56063 4.06886 9.88869 4.28229C10.344 4.56909 10.8126 4.83588 11.2813 5.11602C11.4018 4.96261 11.4955 4.83588 11.5893 4.71583C13.263 2.50145 16.2758 1.49431 18.9673 2.23466C20.2929 2.59483 21.4244 3.26181 22.3684 4.25561C22.442 4.33565 22.5759 4.42903 22.6563 4.40902C23.1785 4.26895 23.694 4.10221 24.2229 3.9488C24.2229 3.33518 24.2229 2.70822 24.2229 1.98788C23.54 1.98788 22.8772 2.00122 22.2144 1.98121C21.6587 1.96787 21.2369 1.53433 21.2302 1.00074C21.2235 0.467158 21.6386 -0.0130681 22.1809 0.000271494C23.1383 0.0202809 24.1091 0.000271496 25.0464 0.167017C29.1907 0.914035 32.2638 4.62245 32.2638 8.81776C32.2638 10.085 31.775 11.1322 30.5766 11.6924C30.1615 11.8859 29.6594 11.9659 29.1907 11.9859C27.9588 12.0526 26.7872 12.2994 25.6959 12.9597C26.1311 13.5 26.5462 14.0202 26.9679 14.5405C27.0751 14.4938 27.1487 14.4671 27.2224 14.4404C29.7464 13.3332 32.6387 14.3937 33.797 16.8882C34.0246 17.3818 34.125 17.9421 34.2857 18.469C34.2857 18.8225 34.2857 19.1826 34.2857 19.5361C34.2656 19.6095 34.2322 19.6829 34.2255 19.7562C33.7635 22.5242 31.3198 24.3184 28.5078 23.9382C25.7293 23.5714 23.7476 20.73 24.3502 18.0021C24.5309 17.1884 24.8858 16.4547 25.408 15.7944C24.9795 15.2608 24.5644 14.7472 24.156 14.2403C24.1024 14.267 24.0823 14.2737 24.069 14.287C24.0355 14.3204 24.0087 14.3537 23.9819 14.387C22.8638 15.6543 22.3081 17.1417 22.2479 18.8225C22.2144 19.6629 21.8596 20.003 21.016 20.003C18.0367 20.003 15.0573 20.0097 12.0847 19.9964C11.8035 19.9964 11.6897 20.0831 11.5826 20.3365C10.6586 22.5709 8.36221 24.0583 5.93857 23.9982C3.45468 23.9382 1.24529 22.3908 0.421793 20.1031C0.227634 19.6028 0.133902 19.0826 0 18.5824ZM20.2527 17.9687C20.2661 17.9287 20.2795 17.8954 20.2862 17.862C20.3063 17.742 20.3264 17.6219 20.3465 17.5019C20.5741 16.0478 21.1231 14.7272 22.0269 13.56C23.8413 11.2189 26.2516 10.045 29.2108 9.97831C29.8803 9.96497 30.2686 9.57145 30.2553 8.90447C30.2151 6.85017 29.4786 5.09601 27.932 3.70869C27.4366 3.26848 26.8943 2.8883 26.2449 2.63485C26.2449 3.42855 26.2516 4.18224 26.2449 4.93593C26.2382 5.54955 25.8231 5.94974 25.2138 5.96975C25.1134 5.96975 25.013 5.96975 24.9125 5.96975C23.694 5.9364 22.7701 6.43664 22.0939 7.44378C21.2168 8.74439 20.313 10.025 19.4426 11.3323C19.148 11.7725 18.7865 11.9726 18.2509 11.9926C17.0859 12.0393 16.1018 12.5062 15.2917 13.3532C15.1377 13.5133 15.1109 13.6534 15.2113 13.8535C15.6264 14.7205 15.9009 15.6343 16.0281 16.5881C16.0884 17.0483 16.1285 17.5085 16.1821 17.9821C17.4944 17.9821 18.7999 17.9821 20.0988 17.9821C20.1456 17.9821 20.1992 17.9687 20.2527 17.9687ZM10.0226 17.9754C10.1029 15.9811 8.43585 14.1803 6.36706 13.9935C4.23132 13.7934 2.36338 15.3142 2.02862 17.5219C1.73404 19.4828 3.18018 21.4904 5.20211 21.9039C6.86919 22.2441 9.06519 21.2503 9.40664 19.9764C8.6434 19.9764 7.88685 19.983 7.1303 19.9764C5.39627 19.9497 4.14428 18.8025 4.01707 17.1217C3.9769 16.6281 4.22462 16.2212 4.64641 16.0545C5.29584 15.801 5.94527 16.2346 6.01222 16.9749C6.06578 17.5552 6.41393 17.9554 6.94284 17.9687C7.97389 17.9954 8.98485 17.9754 10.0226 17.9754ZM17.9429 9.97831C17.9228 9.89827 17.9228 9.87826 17.9161 9.87826C17.8492 9.86492 17.7889 9.84491 17.722 9.83824C15.5193 9.53143 13.4773 8.78441 11.5759 7.62387C10.739 7.11029 9.90208 6.61005 9.0518 6.11649C8.90451 6.02978 8.72374 5.97642 8.55636 5.97642C6.54113 5.96975 4.51921 5.96975 2.49728 5.96975C2.40355 5.96975 2.30982 5.97642 2.18261 5.98309C2.50398 6.79014 3.02619 7.34373 3.76935 7.7039C4.46564 8.03739 5.20211 7.97069 5.93857 7.97736C8.67018 7.99737 11.0336 8.93782 13.022 10.7987C13.3501 11.1055 13.6514 11.4523 13.9861 11.7992C15.0908 10.7253 16.4298 10.1584 17.9429 9.97831ZM13.0555 6.12316C13.0689 6.14317 13.0756 6.16318 13.0957 6.16985C14.9703 7.25035 16.9922 7.83063 19.1547 7.95069C19.2351 7.95736 19.3489 7.89733 19.3958 7.83063C19.9046 7.10362 20.4067 6.37661 20.9156 5.6496C18.8936 3.30183 14.8565 3.40188 13.0555 6.12316ZM26.7269 17.4285C25.9436 18.5023 26.1779 20.2365 27.1956 21.1569C28.4007 22.2374 30.0678 22.2508 31.293 21.1836C32.3709 20.2498 32.5785 18.4957 31.7483 17.3018C30.9716 16.1812 29.3447 15.6476 28.3204 16.1879C28.3605 16.2413 28.394 16.2946 28.4342 16.348C28.9497 16.9883 29.4652 17.6286 29.9807 18.2756C30.3892 18.7958 30.349 19.3894 29.8937 19.7562C29.4318 20.1231 28.8426 20.0364 28.4208 19.5361C28.2132 19.2894 28.0191 19.0359 27.8115 18.7825C27.45 18.3289 27.0885 17.882 26.7269 17.4285Z" fill="#303030"/>
</svg>
