<svg width="25" height="24" viewBox="0 0 25 24" fill="none" xmlns="http://www.w3.org/2000/svg">
<path d="M0.0078125 8.78906C8.03224 8.78906 15.9996 8.78906 24.0159 8.78906C24.0159 8.91126 24.0159 9.01717 24.0159 9.12307C24.0159 12.6669 24.0159 16.2188 24.0159 19.7626C24.0159 22.1984 22.2155 23.9988 19.7797 23.9988C14.5984 23.9988 9.41717 23.9988 4.23591 23.9988C1.80822 23.9988 0.0078125 22.1984 0.0078125 19.7626C0.0078125 16.2188 0.0078125 12.6669 0.0078125 9.12307C0.0078125 9.02532 0.0078125 8.91941 0.0078125 8.78906ZM13.6697 16.618C13.5801 16.7157 13.5231 16.7972 13.4498 16.8705C12.7736 17.6037 12.0974 18.3288 11.4294 19.0701C11.0546 19.4774 11.0546 20.0721 11.4049 20.4225C11.7797 20.7972 12.407 20.8298 12.7736 20.4469C13.7919 19.3878 14.8021 18.3125 15.796 17.2208C16.1626 16.8216 16.1137 16.2595 15.7308 15.8766C15.5923 15.7381 15.4538 15.6078 15.3153 15.4774C14.4192 14.6383 13.5231 13.7911 12.6269 12.9601C12.2033 12.5691 11.6331 12.5528 11.2502 12.9113C10.7858 13.3512 10.8021 13.9948 11.2827 14.4347C12.0811 15.1597 12.8713 15.8848 13.6697 16.618ZM17.5801 16.6261C16.8062 17.4652 16.073 18.2554 15.3398 19.062C14.9569 19.4856 14.9569 20.0884 15.3316 20.4387C15.739 20.8216 16.35 20.8053 16.7491 20.3817C17.7186 19.3552 18.688 18.3288 19.6493 17.2941C20.0811 16.8298 20.0567 16.2677 19.6005 15.8359C18.5903 14.8746 17.5719 13.9296 16.5536 12.9764C16.073 12.5284 15.4701 12.5365 15.0709 12.9846C14.6799 13.4245 14.7451 14.0192 15.2257 14.4673C16.0078 15.176 16.7817 15.8929 17.5801 16.6261Z" fill="#303030"/>
<path d="M4.10291 0.0244389C4.10291 0.708756 4.10291 1.37678 4.10291 2.05295C4.10291 2.54175 4.37175 2.93279 4.77908 3.07942C5.38193 3.29124 6.02552 2.85132 6.04181 2.19144C6.06625 1.56415 6.0581 0.928714 6.04181 0.301424C6.04181 0.0896114 6.08254 0 6.32694 0C10.1803 0.00814663 14.0337 0.00814464 17.8789 0.00814464C17.9359 0.00814464 18.0011 0.0162923 18.0988 0.0244389C18.0988 0.276984 18.0988 0.513236 18.0988 0.749488C18.0988 1.24643 18.0907 1.74338 18.0988 2.24032C18.107 2.79429 18.5632 3.23421 19.0927 3.21792C19.6222 3.20977 20.0377 2.78615 20.0459 2.23218C20.054 1.49898 20.0459 0.773928 20.0459 0.0162918C21.1782 0.0733182 22.107 0.513238 22.8727 1.30346C23.4919 1.95519 23.9155 2.72912 23.9562 3.63339C24.0051 4.68431 23.9644 5.74337 23.9644 6.81058C15.9888 6.81058 8.00515 6.81058 0.0377439 6.81058C0.0214506 6.77799 0.00515783 6.7617 0.00515783 6.74541C0.0214511 5.66191 -0.0437209 4.56211 0.0621852 3.48676C0.265851 1.55601 2.18031 -0.065174 4.10291 0.0244389Z" fill="#303030"/>
</svg>
