<svg width="98" height="86" viewBox="0 0 98 86" fill="none" xmlns="http://www.w3.org/2000/svg">
<path d="M3.0918 50.9705L3.0918 85.8379L97.2165 3.94757L58.3825 3.94757L3.0918 50.9705Z" fill="url(#paint0_linear_694_849)"/>
<path d="M23.9914 54.3018L22.4989 55.5954L21.416 54.764L22.9085 53.4704C23.1287 53.2795 23.2669 53.0968 23.3231 52.9222C23.3819 52.7452 23.3756 52.5782 23.304 52.421C23.2323 52.2593 23.1108 52.1127 22.9396 51.9812C22.7627 51.8454 22.566 51.7477 22.3495 51.6881C22.1329 51.624 21.9095 51.6147 21.6794 51.6602C21.4521 51.7034 21.2283 51.8204 21.0081 52.0113L19.9968 52.8878L25.1459 56.8412L23.8165 57.9934L17.5845 53.2085L19.9252 51.1798C20.3982 50.7698 20.8932 50.4878 21.41 50.3336C21.9296 50.1771 22.4361 50.1416 22.9294 50.2271C23.4226 50.308 23.8703 50.503 24.2727 50.8119C24.675 51.1208 24.9335 51.4681 25.0481 51.8538C25.1654 52.2372 25.137 52.6397 24.9626 53.0613C24.7882 53.4783 24.4644 53.8918 23.9914 54.3018ZM32.0986 45.4981L32.3768 45.7118C32.8505 46.0754 33.2131 46.4561 33.4648 46.8537C33.7191 47.2489 33.8648 47.6473 33.9018 48.049C33.9415 48.4483 33.8764 48.8382 33.7064 49.2187C33.5363 49.5947 33.2624 49.9464 32.8845 50.274C32.5066 50.6015 32.0914 50.847 31.639 51.0107C31.1837 51.1721 30.7078 51.2511 30.2113 51.2476C29.7176 51.2418 29.2199 51.1484 28.7182 50.9676C28.2164 50.7868 27.7287 50.5146 27.2551 50.1509L26.9768 49.9373C26.5032 49.5736 26.1405 49.193 25.8889 48.7954C25.6345 48.3956 25.4874 47.9961 25.4476 47.5967C25.4106 47.1951 25.4785 46.8051 25.6513 46.4268C25.8213 46.0462 26.0952 45.6922 26.4731 45.3647C26.851 45.0372 27.2675 44.7927 27.7229 44.6313C28.1753 44.4677 28.647 44.39 29.1381 44.3982C29.6318 44.404 30.1309 44.4984 30.6355 44.6814C31.1372 44.8622 31.6249 45.1345 32.0986 45.4981ZM31.0352 46.8746L30.7484 46.6544C30.4317 46.4112 30.1249 46.22 29.828 46.0809C29.5282 45.9397 29.2439 45.8502 28.9751 45.8127C28.7063 45.7752 28.4544 45.7906 28.2194 45.859C27.9815 45.9252 27.7661 46.042 27.5731 46.2093C27.3719 46.3837 27.2394 46.5685 27.1755 46.7638C27.1087 46.9569 27.1064 47.1618 27.1686 47.3784C27.2335 47.5927 27.3615 47.8176 27.5525 48.0531C27.7434 48.2841 27.9972 48.5212 28.314 48.7644L28.6007 48.9846C28.9146 49.2256 29.2201 49.4179 29.5172 49.5615C29.8141 49.7006 30.0984 49.79 30.37 49.8298C30.6417 49.8695 30.8951 49.8574 31.1302 49.7935C31.368 49.7273 31.5876 49.607 31.7887 49.4327C31.9817 49.2654 32.1102 49.0841 32.1741 48.8888C32.2408 48.6911 32.2416 48.4828 32.1765 48.264C32.1115 48.0452 31.9835 47.8204 31.7926 47.5894C31.6016 47.3538 31.3491 47.1156 31.0352 46.8746ZM37.5112 42.5839L36.0187 43.8775L34.9358 43.0461L36.4283 41.7525C36.6485 41.5616 36.7867 41.3789 36.8429 41.2043C36.9018 41.0273 36.8954 40.8603 36.8238 40.7031C36.7521 40.5414 36.6306 40.3948 36.4594 40.2634C36.2825 40.1275 36.0858 40.0298 35.8693 39.9702C35.6527 39.9061 35.4294 39.8968 35.1993 39.9423C34.9719 39.9855 34.7481 40.1025 34.5279 40.2934L33.5166 41.1699L38.6657 45.1233L37.3364 46.2755L31.1043 41.4906L33.445 39.4619C33.918 39.0519 34.413 38.7699 34.9299 38.6157C35.4494 38.4592 35.9559 38.4237 36.4492 38.5092C36.9424 38.5901 37.3901 38.7851 37.7925 39.094C38.1948 39.4029 38.4533 39.7502 38.5679 40.1359C38.6853 40.5193 38.6568 40.9218 38.4825 41.3434C38.308 41.7604 37.9843 42.1739 37.5112 42.5839ZM40.9389 32.9668L42.2683 31.8146L46.3602 34.9563C46.8453 35.3288 47.1555 35.7269 47.2908 36.1507C47.4287 36.5721 47.4093 36.9971 47.2324 37.4256C47.0555 37.8541 46.74 38.2651 46.286 38.6586C45.8293 39.0544 45.3428 39.3385 44.8265 39.5108C44.3128 39.6808 43.7913 39.7247 43.2619 39.6426C42.7351 39.5581 42.2292 39.3296 41.7441 38.9572L37.6522 35.8155L38.9856 34.6597L43.0776 37.8015C43.3458 38.0074 43.6036 38.1431 43.8509 38.2086C44.0981 38.2695 44.335 38.267 44.5617 38.2011C44.7856 38.1331 45.0008 38.0095 45.2074 37.8304C45.414 37.6513 45.5509 37.4698 45.6179 37.2858C45.6848 37.0972 45.6708 36.9064 45.5758 36.7136C45.4807 36.5161 45.2991 36.3145 45.0308 36.1085L40.9389 32.9668ZM53.415 30.5768L54.4936 31.405L51.4964 34.0027L50.4178 33.1746L53.415 30.5768ZM45.717 28.8255L51.949 33.6104L50.6197 34.7626L44.3876 29.9777L45.717 28.8255ZM53.8175 23.7426L57.3306 28.9461L55.9116 30.176L51.8775 23.4861L52.7746 22.7086L53.8175 23.7426ZM60.1362 26.5144L53.5524 23.9723L52.2078 23.1999L53.1171 22.4117L61.5553 25.2845L60.1362 26.5144ZM57.7511 24.7898L58.8297 25.618L55.7346 28.3005L54.656 27.4724L57.7511 24.7898ZM56.9859 19.0586L59.2654 17.0829C59.7194 16.6894 60.1835 16.4037 60.6579 16.2258C61.1349 16.0455 61.603 15.985 62.0621 16.0442C62.5211 16.1034 62.9561 16.2907 63.367 16.6062C63.7094 16.8691 63.9475 17.1385 64.0812 17.4144C64.2148 17.6904 64.2636 17.9722 64.2275 18.26C64.1942 18.5455 64.0982 18.8362 63.9397 19.1321L63.7557 19.6974L61.8147 21.3797L60.7236 20.5554L62.1672 19.3042C62.3656 19.1322 62.493 18.9612 62.5493 18.7911C62.6056 18.621 62.5993 18.4562 62.5305 18.2967C62.4614 18.1327 62.3356 17.9805 62.153 17.8403C61.9647 17.6957 61.768 17.6003 61.5631 17.554C61.3582 17.5078 61.1534 17.515 60.9489 17.5757C60.7442 17.6318 60.544 17.7447 60.3483 17.9143L59.3981 18.7378L64.5473 22.6913L63.2179 23.8435L56.9859 19.0586ZM66.5046 20.9948L62.4019 20.0243L63.8004 18.8052L67.8636 19.712L67.9278 19.7613L66.5046 20.9948Z" fill="white"/>
<defs>
<linearGradient id="paint0_linear_694_849" x1="3.50976" y1="67.9141" x2="86.5098" y2="10.4141" gradientUnits="userSpaceOnUse">
<stop stop-color="#D20505"/>
<stop offset="1" stop-color="#FF834E"/>
</linearGradient>
</defs>
</svg>
