<svg width="41" height="24" viewBox="0 0 41 24" fill="none" xmlns="http://www.w3.org/2000/svg">
<path d="M40.5196 16.3621C40.3081 16.9224 40.1813 17.5355 39.8853 18.043C39.103 19.375 37.9084 20.0833 36.3544 20.1678C35.921 20.189 35.4875 20.189 35.0541 20.1784C34.7792 20.1679 34.6524 20.2313 34.5572 20.5273C33.8806 22.6099 31.9883 23.9947 29.8212 23.9947C27.654 24.0053 25.73 22.5993 25.0534 20.5061C24.9688 20.2313 24.8314 20.1784 24.5777 20.1784C21.7022 20.189 18.8268 20.189 15.9513 20.1784C15.6765 20.1784 15.5708 20.263 15.4862 20.5273C14.8202 22.5676 13.0547 23.8996 10.8664 23.9947C8.91068 24.0899 7.0078 22.8847 6.17265 21.0347C6.16208 21.0241 6.16208 21.0136 6.15151 21.003C6.05636 20.2101 5.54893 20.1361 4.87235 20.1784C3.38176 20.2841 2.09204 19.8296 1.08774 18.6878C0.411164 17.9161 0.0411591 17.007 0.0200161 15.9921C-0.00112702 14.6178 -0.0116986 13.2541 0.0200161 11.8798C0.0728737 9.58574 1.96518 7.71458 4.26978 7.66172C4.70321 7.65115 5.21064 7.76744 5.53836 7.56658C5.84493 7.37629 5.95065 6.85828 6.14094 6.48828C6.61665 5.54741 7.05009 4.58541 7.55752 3.66568C8.82611 1.35052 10.803 0.0819294 13.4459 0.0396433C17.1459 -0.0132144 20.8565 -0.0132144 24.5566 0.0396433C27.1994 0.0819294 29.1763 1.33994 30.4449 3.66568C31.0792 4.82855 31.6501 6.03371 32.2315 7.23886C32.3901 7.56658 32.5804 7.68287 32.9504 7.68287C36.513 7.67229 39.5047 10.0297 40.3399 13.4866C40.4139 13.7932 40.4773 14.0998 40.5407 14.4064C40.5196 15.0407 40.5196 15.7067 40.5196 16.3621ZM37.475 12.6832C37.4221 12.5881 37.3798 12.4929 37.327 12.4083C36.2804 10.8755 34.8427 10.0403 32.9715 10.0297C27.9606 10.0192 22.9497 10.0297 17.9388 10.0297C13.4459 10.0297 8.94239 10.0297 4.44949 10.0297C3.27605 10.0297 2.39861 10.8438 2.38804 11.9749C2.3669 13.2752 2.3669 14.5861 2.38804 15.897C2.39861 16.9224 3.21262 17.747 4.23806 17.8104C4.66092 17.8315 5.08378 17.8104 5.50664 17.8315C5.77093 17.8421 5.88722 17.7787 5.98236 17.5038C6.64837 15.4212 8.56182 14.0258 10.7184 14.0152C12.875 14.0046 14.799 15.3895 15.4756 17.4615C15.5707 17.7575 15.7082 17.8421 16.0042 17.8315C18.8479 17.821 21.7022 17.821 24.546 17.8315C24.842 17.8315 24.9688 17.7575 25.064 17.4615C25.8251 15.1569 28.0557 13.7404 30.4555 14.0786C32.5169 14.3746 33.8701 15.5587 34.5572 17.5038C34.6418 17.747 34.7264 17.8527 34.9907 17.8315C35.403 17.8104 35.8047 17.8315 36.217 17.821C37.5807 17.7575 38.4793 16.4572 38.0881 15.1358C36.7773 15.0618 36.3121 14.7869 36.2592 14.0364C36.1958 13.3386 36.5975 12.9052 37.475 12.6832ZM17.7908 2.41824C17.6956 2.40767 17.6322 2.38653 17.5688 2.38653C16.1205 2.38653 14.6722 2.33367 13.2239 2.3971C11.7967 2.46053 10.6233 3.14768 9.88326 4.35283C9.25954 5.3677 8.79439 6.47771 8.25524 7.55601C8.24467 7.56658 8.26582 7.59829 8.27639 7.60886C11.4478 7.60886 14.6193 7.60886 17.8013 7.60886C17.7908 5.87513 17.7908 4.17311 17.7908 2.41824ZM29.7789 7.63001C29.282 6.63628 28.8275 5.67427 28.3306 4.74398C27.5272 3.24282 26.2374 2.43938 24.5354 2.3971C23.2351 2.36538 21.9242 2.38653 20.6239 2.38653C20.4865 2.38653 20.3491 2.3971 20.2117 2.40767C20.2117 4.17311 20.2117 5.89628 20.2117 7.63001C23.3831 7.63001 26.544 7.63001 29.7789 7.63001ZM10.7396 21.6267C12.1773 21.6161 13.3507 20.4427 13.3613 19.005C13.3719 17.5672 12.1667 16.3621 10.7184 16.3621C9.27011 16.3727 8.07553 17.5884 8.09667 19.0261C8.11781 20.4744 9.3124 21.6373 10.7396 21.6267ZM29.7895 21.6267C31.2166 21.6373 32.4112 20.4744 32.4324 19.0367C32.4641 17.599 31.2589 16.3832 29.8106 16.3727C28.3623 16.3621 27.1572 17.5672 27.1677 19.005C27.1677 20.4427 28.3517 21.6161 29.7895 21.6267Z" fill="#303030"/>
<path d="M20.2744 15.0912C20.0524 15.0912 19.8304 15.1017 19.6084 15.0912C18.9529 15.0594 18.4561 14.5626 18.4455 13.9283C18.4349 13.3046 18.9212 12.7549 19.5661 12.7231C20.0418 12.702 20.5175 12.6914 20.9827 12.7231C21.6275 12.7654 22.1032 13.3152 22.0821 13.9389C22.0609 14.552 21.5747 15.0489 20.9509 15.0806C20.7184 15.1017 20.4964 15.0912 20.2744 15.0912Z" fill="#303030"/>
</svg>
