<svg width="28" height="24" viewBox="0 0 28 24" fill="none" xmlns="http://www.w3.org/2000/svg">
<path d="M5.2199 17.4393C5.2199 16.9858 5.2199 16.572 5.2199 16.1264C5.1085 16.1264 5.01301 16.1264 4.91753 16.1264C3.5489 16.1264 2.17231 16.1264 0.803674 16.1264C0.246672 16.1264 0 15.8877 0 15.3386C0 13.3971 0 11.4476 0 9.50603C0 8.95699 0.238715 8.71827 0.803674 8.71032C2.26779 8.71032 3.73191 8.71032 5.23581 8.71032C5.23581 8.60687 5.23581 8.51138 5.23581 8.4159C5.23581 6.72898 5.23581 5.0341 5.23581 3.34719C5.23581 1.60457 6.38165 0.251852 8.10835 0.0210941C8.60965 -0.0425632 9.13482 0.0529232 9.65204 0.108623C11.7846 0.347338 13.9091 0.601967 16.0337 0.856596C17.9514 1.08735 19.877 1.31015 21.7947 1.54091C22.4074 1.61253 23.028 1.66027 23.6328 1.77167C24.9616 2.01834 25.7732 3.03686 25.7335 4.38162C25.6061 8.65461 25.4709 12.9197 25.3276 17.1926C25.3197 17.3916 25.3595 17.4632 25.5743 17.5109C26.6804 17.7258 27.4681 18.6886 27.484 19.8185C27.492 20.3835 27.492 20.9484 27.484 21.5054C27.484 21.9351 27.2214 22.2295 26.8395 22.2295C26.4496 22.2375 26.1791 21.9351 26.1791 21.4895C26.1791 20.9723 26.1791 20.4551 26.1791 19.9379C26.1791 19.1899 25.7335 18.7443 25.0014 18.7443C23.8954 18.7443 22.7814 18.7443 21.6753 18.7443C20.9671 18.7443 20.5136 19.1979 20.5136 19.906C20.5136 20.4312 20.5136 20.9643 20.5136 21.4895C20.5136 21.9431 20.251 22.2375 19.8611 22.2375C19.4712 22.2375 19.2006 21.9431 19.2086 21.4895C19.2165 20.7972 19.1768 20.105 19.2643 19.4207C19.3836 18.4419 20.1635 17.686 21.1342 17.503C21.3093 17.4711 21.3729 17.4234 21.365 17.2324C21.2536 13.7949 21.1501 10.3654 21.0467 6.92791C21.0467 6.80059 21.0308 6.68124 21.0228 6.53801C19.1051 6.53801 17.2113 6.53801 15.2778 6.53801C15.2778 6.64145 15.2778 6.75285 15.2778 6.8563C15.2778 9.65722 15.2778 12.4581 15.2778 15.2591C15.2778 15.9115 15.0629 16.1264 14.4184 16.1343C13.559 16.1343 12.6917 16.1343 11.8084 16.1343C11.8084 16.564 11.8084 16.9858 11.8084 17.4473C12.3973 17.4473 12.994 17.4314 13.5908 17.4552C13.925 17.4632 14.2672 17.4871 14.5855 17.5666C16.1133 17.9486 17.1795 19.4843 17.0045 21.036C16.8214 22.699 15.4608 23.9801 13.8295 23.9881C10.2886 24.004 6.73972 24.004 3.19878 23.9881C1.53573 23.9801 0.119358 22.6115 0.0159153 20.9564C-0.095485 19.2774 1.09809 17.7576 2.73727 17.503C2.95211 17.4711 3.16695 17.4552 3.38975 17.4552C3.98654 17.4393 4.59128 17.4393 5.2199 17.4393ZM1.32089 14.8055C5.53818 14.8055 9.73957 14.8055 13.933 14.8055C13.933 13.787 13.933 12.7844 13.933 11.7659C13.0179 11.7659 12.1267 11.7659 11.2435 11.7659C9.75548 11.7659 8.72901 10.7394 8.72105 9.2514C8.72105 7.86686 8.72105 6.49027 8.72105 5.10572C8.72105 5.01023 8.72105 4.90679 8.72105 4.80335C7.98103 4.80335 7.27285 4.80335 6.54079 4.80335C6.54079 4.91475 6.54079 5.01819 6.54079 5.11368C6.54079 6.48231 6.54079 7.8589 6.54079 9.22753C6.54079 9.78453 6.30207 10.0153 5.73711 10.0232C4.36848 10.0232 2.99189 10.0232 1.62326 10.0232C1.52778 10.0232 1.43229 10.0232 1.32089 10.0232C1.32089 11.6306 1.32089 13.2061 1.32089 14.8055ZM8.50621 18.7523C6.81929 18.7523 5.12441 18.7761 3.43749 18.7443C2.18026 18.7204 1.31293 19.6673 1.30498 20.7097C1.30498 21.7601 2.17231 22.7388 3.44545 22.6831C4.07407 22.6592 4.69473 22.6751 5.32334 22.6751C8.10039 22.6751 10.8854 22.6751 13.6624 22.6751C14.3786 22.6751 14.9595 22.3966 15.3573 21.8078C15.7791 21.1792 15.8268 20.4949 15.4767 19.8185C15.1186 19.1342 14.5377 18.7602 13.7579 18.7523C12.0153 18.7443 10.2568 18.7523 8.50621 18.7523ZM15.1823 5.22508C15.2857 5.22508 15.3892 5.22508 15.4846 5.22508C18.0389 5.22508 20.5931 5.22508 23.1394 5.22508C23.219 5.22508 23.3065 5.22508 23.3861 5.22508C23.8635 5.20121 24.2534 4.89088 24.3807 4.42936C24.5081 3.99172 24.3569 3.56203 23.9351 3.3074C23.7283 3.18009 23.4736 3.0846 23.227 3.05277C22.2562 2.9175 21.2775 2.81406 20.3067 2.70266C18.3572 2.4719 16.4156 2.24114 14.4661 2.01834C12.5405 1.78758 10.6069 1.57274 8.68126 1.33403C7.5036 1.18284 6.39756 2.28093 6.57262 3.49837C6.6681 3.49837 6.76359 3.49837 6.85907 3.49837C8.85632 3.49837 10.8536 3.49837 12.8508 3.49837C13.8534 3.49837 14.7048 4.0872 15.0788 5.01024C15.1106 5.06594 15.1425 5.13755 15.1823 5.22508ZM13.9569 10.4529C13.9569 8.86946 13.9728 7.31781 13.9489 5.75821C13.9409 5.22508 13.4556 4.80335 12.9145 4.77948C12.6121 4.77152 12.3177 4.77948 12.0153 4.77948C11.3628 4.77948 10.7103 4.77948 10.0738 4.77948C10.0579 4.81926 10.0419 4.83518 10.0419 4.85109C10.0419 6.37887 10.026 7.90664 10.0419 9.43441C10.0499 9.9755 10.5035 10.4291 11.0366 10.445C11.9994 10.4688 12.9622 10.4529 13.9569 10.4529ZM24.0147 17.4314C24.1341 13.7154 24.2455 10.0232 24.3569 6.40274C23.6726 6.4664 23.0121 6.5221 22.3358 6.58575C22.4472 10.1903 22.5586 13.8109 22.67 17.4314C23.1235 17.4314 23.5532 17.4314 24.0147 17.4314ZM6.5567 17.4234C7.86963 17.4234 9.16665 17.4234 10.4478 17.4234C10.4478 16.9858 10.4478 16.564 10.4478 16.1503C9.14278 16.1503 7.85372 16.1503 6.5567 16.1503C6.5567 16.572 6.5567 16.9858 6.5567 17.4234Z" fill="#303030"/>
<path d="M6.55469 17.4255C6.55469 16.9958 6.55469 16.582 6.55469 16.1523C7.8517 16.1523 9.14076 16.1523 10.4457 16.1523C10.4457 16.5661 10.4457 16.9878 10.4457 17.4255C9.15668 17.4255 7.86762 17.4255 6.55469 17.4255Z" fill="#303030"/>
<path d="M8.50302 20.0586C9.33852 20.0586 10.174 20.0586 11.0095 20.0586C11.479 20.0586 11.7814 20.3212 11.7734 20.719C11.7734 21.1089 11.471 21.3636 11.0254 21.3636C9.33852 21.3636 7.6516 21.3636 5.96468 21.3636C5.41564 21.3636 5.08144 20.8782 5.30424 20.4326C5.43156 20.17 5.65436 20.0586 5.94877 20.0586C6.79223 20.0666 7.6516 20.0586 8.50302 20.0586Z" fill="#303030"/>
<path d="M3.28559 20.0627C3.65162 20.0706 3.93808 20.365 3.93012 20.7311C3.92216 21.0812 3.6357 21.3676 3.27763 21.3676C2.91956 21.3676 2.61719 21.0653 2.61719 20.7072C2.61719 20.3412 2.91956 20.0547 3.28559 20.0627Z" fill="#303030"/>
<path d="M14.3909 20.7231C14.383 21.0891 14.0806 21.3756 13.7225 21.3676C13.3724 21.3597 13.0859 21.0653 13.0859 20.7151C13.0859 20.3491 13.3804 20.0547 13.7464 20.0627C14.1124 20.0627 14.3989 20.3571 14.3909 20.7231Z" fill="#303030"/>
</svg>
