<svg width="29" height="24" viewBox="0 0 29 24" fill="none" xmlns="http://www.w3.org/2000/svg">
<path d="M28.979 18.6304C28.911 18.9632 28.8505 19.2959 28.7597 19.6211C28.0488 22.2152 25.7044 24 23.0347 24C20.3953 24.0075 18.0433 22.2303 17.3248 19.6741C17.2643 19.4623 17.1811 19.3943 16.9618 19.3943C16.3039 19.4094 15.6383 19.4094 14.9804 19.3943C14.7838 19.3943 14.693 19.4623 14.6022 19.6363C13.0897 22.5101 10.7074 24.0302 7.45545 23.9773C3.15224 23.9092 -0.243436 20.1657 0.0136975 15.87C0.127139 13.9491 0.868289 12.2928 2.21446 10.9164C2.35059 10.7803 2.41109 10.6442 2.41109 10.4475C2.40353 7.63418 2.40353 4.82083 2.40353 2.01505C2.40353 1.9243 2.39596 1.83355 2.3884 1.70498C2.16908 1.70498 1.96489 1.70498 1.76069 1.70498C1.16324 1.70498 0.777536 1.36466 0.785099 0.842827C0.792662 0.343686 1.18592 0.00336122 1.76069 0.00336122C5.72358 0.00336122 9.68646 0.00336122 13.6493 0.00336122C14.3678 0.00336122 15.0863 -0.00420153 15.7972 0.00336122C16.2812 0.010924 16.6366 0.3815 16.6366 0.85039C16.6366 1.31928 16.2812 1.67473 15.7896 1.69742C15.5627 1.70498 15.3434 1.69742 15.0863 1.69742C15.1543 2.23437 15.2224 2.74108 15.2905 3.24022C15.5098 4.84352 15.7367 6.45439 15.9484 8.05769C15.9787 8.29214 16.0619 8.36777 16.2963 8.37533C17.2946 8.42827 18.2929 8.5039 19.2912 8.57196C19.397 8.57952 19.4953 8.58708 19.639 8.59465C19.6466 8.48877 19.6542 8.39045 19.6542 8.29214C19.6542 7.41486 19.6693 6.53758 19.6466 5.6603C19.639 5.19897 19.7903 4.86621 20.1987 4.63177C20.5314 4.4427 20.8415 4.20825 21.1743 4.00406C21.6129 3.7318 22.1045 3.82255 22.3692 4.22338C22.6339 4.6242 22.528 5.11578 22.1121 5.41829C22.1045 5.42585 22.0969 5.43342 22.0894 5.43342C21.4163 5.69055 21.2726 6.19726 21.3407 6.86278C21.3936 7.4678 21.3558 8.08794 21.3558 8.72322C22.1726 8.78372 22.9591 8.83666 23.7456 8.8896C24.2069 8.91985 24.6683 8.9501 25.1296 8.98791C25.6817 9.04085 25.9691 9.35849 25.9691 9.92569C25.9691 10.8332 25.9766 11.7408 25.9691 12.6407C25.9691 12.8071 26.0069 12.913 26.1581 13.0037C27.7539 14.0247 28.6841 15.4768 28.9261 17.3599C28.9337 17.4053 28.9564 17.4431 28.9715 17.4884C28.979 17.8741 28.979 18.2523 28.979 18.6304ZM13.672 16.3238C13.6872 13.0415 11.0175 10.3492 7.72014 10.319C4.44547 10.2887 1.72288 12.9735 1.70019 16.2557C1.6775 19.5758 4.35472 22.2908 7.6672 22.3059C10.957 22.3135 13.6569 19.6363 13.672 16.3238ZM24.275 10.6139C20.2365 10.44 16.2282 9.89544 12.1141 10.0316C13.362 10.9467 14.2468 12.066 14.8064 13.4272C15.3661 14.7961 15.4871 16.2179 15.2602 17.6851C15.8879 17.6851 16.4854 17.6851 17.098 17.6851C17.2568 15.8851 18.0206 14.418 19.4424 13.3289C20.8718 12.2323 22.5053 11.9071 24.275 12.2323C24.275 11.6954 24.275 11.1811 24.275 10.6139ZM23.0498 13.8129C20.7054 13.8054 18.7996 15.7036 18.792 18.0405C18.7844 20.3774 20.6903 22.2984 23.0272 22.2984C25.364 22.3059 27.285 20.3925 27.285 18.0632C27.285 15.7188 25.3867 13.8205 23.0498 13.8129ZM8.12097 3.60323C8.37054 3.60323 8.60499 3.59567 8.83943 3.60323C9.97384 3.62592 10.8133 4.14775 11.2822 5.16872C11.4486 5.52417 11.5015 5.94769 11.5242 6.34095C11.562 6.98378 11.5318 7.63418 11.5318 8.29214C12.4544 8.29214 13.3468 8.29214 14.2544 8.29214C14.2468 8.17113 14.2392 8.06526 14.2241 7.96694C13.9518 5.97037 13.672 3.97381 13.3998 1.97724C13.3695 1.75792 13.3015 1.69742 13.0897 1.69742C11.5166 1.70498 9.94359 1.70498 8.36298 1.70498C8.27979 1.70498 8.1966 1.71254 8.10584 1.72011C8.12097 2.34782 8.12097 2.94527 8.12097 3.60323ZM4.12027 9.47949C4.22615 9.43411 4.29422 9.3963 4.36984 9.37361C4.94461 9.17698 5.51938 8.96522 6.10928 8.79128C6.3286 8.73078 6.41179 8.67784 6.41179 8.42827C6.40422 6.28801 6.40422 4.14775 6.40422 2.00749C6.40422 1.91674 6.39666 1.82599 6.3891 1.72011C5.62526 1.72011 4.87655 1.72011 4.12027 1.72011C4.12027 4.31413 4.12027 6.88547 4.12027 9.47949ZM9.83015 8.2997C9.83015 7.55099 9.8604 6.8174 9.81503 6.09138C9.79234 5.70568 9.51252 5.41829 9.13438 5.35023C8.80918 5.28973 8.46885 5.3351 8.12853 5.3351C8.12853 6.32582 8.12853 7.30898 8.12853 8.2997C8.71086 8.2997 9.26294 8.2997 9.83015 8.2997Z" fill="#303030"/>
<path d="M7.6644 19.8744C5.70564 19.8668 4.11746 18.256 4.12503 16.2896C4.13259 14.3536 5.74346 12.7503 7.69465 12.7578C9.63827 12.7654 11.2416 14.3687 11.2416 16.3199C11.234 18.2711 9.61559 19.8819 7.6644 19.8744ZM5.81908 16.3123C5.81908 17.3333 6.65099 18.1652 7.6644 18.1728C8.6778 18.1803 9.51727 17.3484 9.53239 16.3275C9.54752 15.3065 8.69293 14.4519 7.6644 14.4519C6.65099 14.4595 5.82665 15.2989 5.81908 16.3123Z" fill="#303030"/>
<path d="M20.4844 18.0338C20.492 16.6271 21.6491 15.5003 23.0633 15.5079C24.4549 15.523 25.5817 16.6649 25.5741 18.0716C25.5666 19.4632 24.417 20.6051 23.0255 20.6051C21.6264 20.6051 20.4768 19.4405 20.4844 18.0338ZM23.0482 17.2095C22.5793 17.2019 22.1936 17.5725 22.186 18.0338C22.1709 18.5027 22.5717 18.9035 23.0331 18.9035C23.4868 18.9035 23.8801 18.5178 23.8801 18.0565C23.8876 17.6027 23.5095 17.217 23.0482 17.2095Z" fill="#303030"/>
</svg>
