<svg width="33" height="24" viewBox="0 0 33 24" fill="none" xmlns="http://www.w3.org/2000/svg">
<path d="M32.5435 20.2717C32.3312 20.8322 31.9065 21.0445 31.3205 21.0191C30.7176 20.9936 30.1146 21.0191 29.5116 21.0106C29.3333 21.0106 29.2314 21.053 29.1719 21.2399C28.6454 22.9129 27.2016 23.9915 25.5031 24C23.8131 24.0084 22.3354 22.9129 21.8089 21.2314C21.7494 21.053 21.673 21.0021 21.4947 21.0021C18.0127 21.0021 14.5223 21.0106 11.0403 21.0021C10.828 21.0021 10.7601 21.0785 10.7006 21.2738C10.1826 22.9129 8.72185 23.9915 7.04033 24C5.3588 24.0084 3.8811 22.9044 3.36305 21.2569C3.3036 21.053 3.21019 21.0021 3.00637 21.0021C2.36093 21.0106 1.7155 21.0106 1.07006 21.0021C0.390658 20.9936 0 20.6114 0 19.9405C0 13.6475 0 7.35455 0 1.06157C0 0.382165 0.390658 0 1.07006 0C7.15073 0 13.2314 0 19.3121 0C20 0 20.3821 0.390657 20.3906 1.09554C20.3991 2.03821 20.3906 2.98088 20.3906 3.92356C20.3906 4.03396 20.3906 4.15286 20.3906 4.29723C20.552 4.29723 20.6794 4.29723 20.8068 4.29723C22.7006 4.29723 24.6029 4.28024 26.4968 4.30572C29.605 4.33969 32.0594 6.50529 32.501 9.57111C32.5095 9.62206 32.535 9.66452 32.552 9.71548C32.5435 13.2399 32.5435 16.7558 32.5435 20.2717ZM1.91082 12.5435C2.03821 12.552 2.13163 12.5605 2.22505 12.5605C7.5329 12.5605 12.8407 12.5605 18.1486 12.569C18.4119 12.569 18.4883 12.4925 18.4883 12.2293C18.4798 8.9002 18.4798 5.57961 18.4798 2.25053C18.4798 2.14862 18.4713 2.0467 18.4628 1.94479C12.9257 1.94479 7.43098 1.94479 1.91932 1.94479C1.91082 5.4777 1.91082 8.99361 1.91082 12.5435ZM18.4543 14.4883C12.9172 14.4883 7.414 14.4883 1.91082 14.4883C1.91082 16.0339 1.91082 17.5541 1.91082 19.1082C2.30148 19.1082 2.66666 19.0913 3.03184 19.1167C3.25265 19.1252 3.33757 19.0403 3.41401 18.845C3.97452 17.3163 5.38428 16.3312 6.99787 16.3227C8.61994 16.3142 10.0467 17.2908 10.6157 18.828C10.6921 19.0403 10.7855 19.1167 11.0233 19.1167C13.3928 19.1082 15.7707 19.1082 18.1401 19.1167C18.4119 19.1167 18.4713 19.0233 18.4713 18.7685C18.4628 17.4437 18.4628 16.1189 18.4628 14.794C18.4713 14.7006 18.4628 14.6072 18.4543 14.4883ZM20.3906 19.1082C20.7813 19.1082 21.138 19.0913 21.4947 19.1167C21.707 19.1252 21.8004 19.0573 21.8768 18.8535C22.5477 17.0361 24.3821 16.0085 26.276 16.4076C27.6518 16.6964 28.5859 17.5456 29.104 18.8535C29.1464 18.9469 29.2229 19.0997 29.2908 19.0997C29.7324 19.1252 30.174 19.1082 30.6326 19.1082C30.6326 18.6412 30.6326 18.2165 30.6326 17.8004C30.6326 17.7494 30.6241 17.6985 30.6157 17.656C29.7494 17.5201 29.4097 17.2399 29.4182 16.6539C29.4267 16.0934 29.7834 15.7961 30.6072 15.6857C30.6072 15.2866 30.6072 14.8959 30.6072 14.4798C30.4628 14.4798 30.3354 14.4798 30.208 14.4798C28.1868 14.4798 26.1656 14.4798 24.1358 14.4798C23.3121 14.4798 22.9554 14.1231 22.9554 13.2993C22.9554 11.0743 22.9554 8.84924 22.9554 6.62419C22.9554 6.4968 22.9554 6.37791 22.9554 6.24203C22.0806 6.24203 21.2399 6.24203 20.3906 6.24203C20.3906 10.5223 20.3906 14.7855 20.3906 19.1082ZM24.9087 6.14861C24.8832 6.29298 24.8747 6.32695 24.8747 6.36941C24.8747 8.34818 24.8747 10.3269 24.8662 12.3057C24.8662 12.5775 25.0106 12.552 25.1889 12.552C26.9044 12.552 28.6199 12.552 30.3354 12.552C30.4288 12.552 30.5222 12.5435 30.6411 12.535C30.6411 11.7622 30.6496 11.0148 30.6411 10.2675C30.6157 8.4331 29.3418 6.75158 27.5498 6.36092C26.6921 6.17409 25.8004 6.21655 24.9087 6.14861ZM7.01485 18.225C5.94479 18.2335 5.07855 19.1082 5.08704 20.1698C5.09553 21.2314 5.98725 22.1061 7.04033 22.0976C8.11039 22.0891 8.96814 21.2144 8.95964 20.1443C8.95964 19.0743 8.0934 18.2165 7.01485 18.225ZM23.5583 20.1443C23.5499 21.2144 24.4076 22.0891 25.4777 22.1061C26.5307 22.1231 27.4225 21.2484 27.4394 20.1783C27.4564 19.1167 26.5817 18.2335 25.5116 18.225C24.4331 18.2165 23.5668 19.0658 23.5583 20.1443Z" fill="#303030"/>
</svg>
