<svg width="30" height="24" viewBox="0 0 30 24" fill="none" xmlns="http://www.w3.org/2000/svg">
<path d="M29.2174 19.1051C29.2174 19.3481 29.2174 19.5986 29.2174 19.8415C29.0498 20.1756 28.8135 20.4261 28.4325 20.4793C28.4859 22.2406 27.038 23.8729 25.133 23.9944C23.3499 24.1007 21.4525 22.681 21.4296 20.4869C17.17 20.4869 12.9027 20.4869 8.6431 20.4869C8.55928 22.7341 6.8219 23.9413 5.27502 23.9944C4.39108 24.0248 3.60621 23.7591 2.92803 23.1972C2.08219 22.4988 1.67071 21.5801 1.64785 20.4717C1.41163 20.4717 1.19826 20.4717 0.977278 20.4717C0.344809 20.4717 0.00190479 20.13 0.00190479 19.5075C0.00190479 15.1876 -0.00571485 10.8677 0.00952537 6.54776C0.00952537 6.09983 0.0552451 5.63671 0.146686 5.19637C0.817256 2.11398 3.45381 0.0109664 6.62378 0.00337427C12.1103 -0.00421783 17.5967 0.00337427 23.0756 0.00337427C23.1518 0.00337427 23.228 0.00337473 23.3042 0.0109668C23.9367 0.0868879 24.2796 0.78536 23.9367 1.31681C23.7538 1.59012 23.4947 1.7116 23.1594 1.7116C22.5422 1.7116 21.9173 1.7116 21.2544 1.7116C21.3534 1.87862 21.422 2.0001 21.4906 2.12157C22.184 3.42741 22.946 4.69529 23.5557 6.0391C24.8663 8.93169 25.5216 11.9989 25.6512 15.1724C25.6588 15.347 25.7045 15.4305 25.895 15.4761C27.3276 15.8329 28.3411 16.6984 28.905 18.0574C29.0498 18.3839 29.1183 18.7483 29.2174 19.1051ZM5.20644 12.0369C5.20644 11.923 5.20644 11.8167 5.20644 11.718C5.20644 10.0629 5.19882 8.40024 5.21406 6.74516C5.21406 6.46425 5.23692 6.17575 5.29788 5.90244C5.64078 4.42957 6.88286 3.47296 8.42974 3.47296C11.8207 3.46537 15.2193 3.47296 18.6102 3.47296C18.7169 3.47296 18.8312 3.47296 18.9379 3.47296C18.9379 2.8656 18.9379 2.30378 18.9379 1.7116C18.8312 1.7116 18.7397 1.7116 18.6483 1.7116C14.6554 1.7116 10.6624 1.7116 6.6695 1.7116C3.85006 1.7116 1.72405 3.82979 1.72405 6.63128C1.72405 8.3395 1.72405 10.0401 1.72405 11.7484C1.72405 11.8471 1.72405 11.9458 1.72405 12.0444C2.90517 12.0369 4.04056 12.0369 5.20644 12.0369ZM9.53466 18.7407C10.3729 18.7407 11.173 18.7407 11.9655 18.7407C11.9655 14.2082 11.9655 9.69849 11.9655 5.1736C10.792 5.1736 9.64134 5.1736 8.4907 5.1736C7.49247 5.1736 6.91334 5.75059 6.91334 6.74516C6.91334 8.41542 6.91334 10.0781 6.91334 11.7484C6.91334 11.8471 6.91334 11.9458 6.91334 12.0596C7.19528 12.0596 7.43151 12.0672 7.67535 12.0596C9.45084 12.0065 9.588 12.1431 9.54228 13.8969C9.51942 14.6561 9.54228 15.4153 9.54228 16.167C9.53466 17.0173 9.53466 17.8676 9.53466 18.7407ZM18.9379 5.19637C17.1776 5.19637 15.4479 5.19637 13.7257 5.19637C13.7257 7.48919 13.7257 9.76682 13.7257 12.052C14.5715 12.052 15.4021 12.052 16.2251 12.052C16.9109 12.052 17.2386 12.3785 17.2386 13.0542C17.2386 14.8535 17.2386 16.6529 17.2386 18.4522C17.2386 18.5509 17.2386 18.6496 17.2386 18.7407C17.833 18.7407 18.3816 18.7407 18.9379 18.7407C18.9379 14.2234 18.9379 9.72126 18.9379 5.19637ZM1.73167 18.7407C1.99837 18.8014 2.15077 18.7407 2.3108 18.5129C3.53001 16.7667 6.05227 16.5466 7.57629 18.0346C7.64487 18.1029 7.72107 18.1713 7.80489 18.2472C7.80489 16.7288 7.80489 15.2483 7.80489 13.7754C5.77032 13.7754 3.75862 13.7754 1.73929 13.7754C1.73167 15.4305 1.73167 17.078 1.73167 18.7407ZM23.83 13.6464C23.4414 13.6464 23.0756 13.6464 22.7174 13.6464C22.184 13.6388 21.803 13.282 21.803 12.7961C21.803 12.3102 22.184 11.9458 22.7098 11.9382C22.9918 11.9382 23.2737 11.9382 23.6014 11.9382C23.4871 11.4143 23.3804 10.9208 23.2813 10.4197C22.3974 10.4197 21.5439 10.4197 20.6905 10.4197C20.6905 13.206 20.6905 15.9696 20.6905 18.7331C21.1858 17.0325 22.2679 15.9316 23.9824 15.4381C23.9443 14.8763 23.9062 14.3449 23.8605 13.8058C23.8528 13.7679 23.8376 13.7223 23.83 13.6464ZM6.91334 20.5172C6.91334 19.5379 6.12085 18.7559 5.13024 18.7559C4.16248 18.7559 3.36999 19.5379 3.36999 20.5096C3.36999 21.489 4.15486 22.2862 5.13786 22.2862C6.12085 22.2862 6.91334 21.489 6.91334 20.5172ZM15.5088 18.7483C15.5088 17.078 15.5088 15.4229 15.5088 13.783C14.8992 13.783 14.3048 13.783 13.7181 13.783C13.7181 15.4457 13.7181 17.0932 13.7181 18.7483C14.3125 18.7483 14.8992 18.7483 15.5088 18.7483ZM22.5574 18.7483C24.1424 18.7483 25.7274 18.7483 27.32 18.7483C27.0609 17.7613 26.0093 17.0401 24.8739 17.0628C23.7995 17.078 22.7708 17.8296 22.5574 18.7483ZM22.7632 8.68874C22.2374 7.0944 21.5592 5.58357 20.6753 4.08792C20.6753 5.67467 20.6753 7.17032 20.6753 8.68874C21.3687 8.68874 22.0469 8.68874 22.7632 8.68874ZM23.1823 20.4793C23.1594 21.5042 24.0052 22.3242 25.0263 22.2786C25.9788 22.2406 26.779 21.3903 26.6951 20.4793C25.5216 20.4793 24.3634 20.4793 23.1823 20.4793Z" fill="#303030"/>
</svg>
