<svg width="161" height="160" viewBox="0 0 161 160" fill="none" xmlns="http://www.w3.org/2000/svg">
<path d="M85.9028 98.5605C85.9028 97.1319 85.9028 97.1318 85.9028 96.4175C85.9028 76.4175 85.9028 57.1318 85.9028 37.1318C85.9028 27.8461 93.0458 20.7031 101.617 20.7031C110.189 20.7031 118.046 27.8461 118.046 37.1318C118.046 49.2747 118.046 61.4176 118.046 73.5605C118.046 74.2747 118.046 74.9889 118.046 75.7032C123.046 77.1318 127.331 77.8461 132.331 79.2747C137.331 80.7032 141.617 81.4175 146.617 82.8461C155.189 84.9889 160.903 92.8461 160.903 101.418C160.903 110.703 160.903 119.989 160.903 129.275C160.903 146.418 147.331 159.275 130.189 159.989C121.617 159.989 113.76 159.989 105.189 159.989C92.3315 159.989 82.3316 154.989 74.4744 144.989C65.1887 132.846 56.6172 119.989 48.0458 107.846C44.4743 102.846 44.4743 97.1317 48.0458 92.1317C51.6172 86.4174 56.6172 84.9889 63.0458 85.7032C69.4744 86.4175 75.1886 89.2747 80.1886 94.2747C82.3315 94.2747 83.76 96.4176 85.9028 98.5605ZM96.6171 73.5605C96.6171 85.7033 96.6171 97.846 96.6171 109.989C96.6171 110.703 96.6171 111.418 96.6171 112.132C95.9028 114.275 95.1885 115.703 93.0457 116.418C90.9028 117.132 88.7601 116.418 87.3315 114.989C82.3315 109.989 77.3315 104.989 73.0458 100.703C69.4743 97.1318 65.9028 95.7031 60.9028 95.7031C58.0457 95.7031 55.9028 98.5604 57.3314 101.418C58.0457 102.132 58.7601 103.56 59.4744 104.275C67.3315 115.703 75.1886 126.418 83.0457 137.846C88.76 145.703 96.6173 149.275 106.617 149.275C114.474 149.275 122.331 149.275 129.474 149.275C141.617 149.275 150.189 140.703 150.189 128.56C150.189 119.989 150.189 110.703 150.189 102.132C150.189 97.1319 148.046 94.2746 143.046 92.846C133.046 90.7032 123.046 87.846 113.046 85.7032C108.76 84.2746 107.331 82.846 107.331 78.5603C107.331 64.9889 107.331 51.4176 107.331 37.8462C107.331 35.7033 106.617 34.2746 105.189 32.8461C103.76 31.4175 101.617 31.4175 99.4744 32.1317C97.3316 32.846 96.6171 34.989 96.6171 37.1318C96.6171 49.2747 96.6171 61.4176 96.6171 73.5605Z" fill="#1D1E4E"/>
<path d="M80.1901 29.2858C80.1901 30.7143 79.4759 32.143 78.0473 33.5715C73.7616 37.8572 68.7614 42.8572 64.4757 47.1429C63.7614 47.8572 63.0473 48.5714 63.7616 50C65.1902 56.4286 65.9044 62.1429 66.6187 68.5715C66.6187 70.7143 67.3329 72.1428 65.9044 74.2857C64.4758 76.4286 61.6187 76.4286 58.7615 75.7143C53.0472 72.8572 47.333 70.0002 41.6187 66.4287C40.9044 65.7144 39.4759 65.7144 38.7616 66.4287C33.0473 69.2859 27.3328 72.1429 21.6186 75C19.4757 76.4286 17.3329 76.4286 15.19 75C13.0472 73.5714 13.0473 71.4286 13.0473 68.5715C14.4758 62.1429 15.1901 56.4286 16.6187 50C16.6187 48.5714 16.6186 47.8572 15.9044 47.1429C11.6186 42.8572 6.61868 38.5716 2.33297 34.2859C0.904395 32.8573 -0.524307 30.7143 0.189979 28.5714C0.904265 26.4286 3.04721 25 5.19007 25C11.6186 24.2857 18.0473 22.8572 24.4759 22.1429C25.9044 22.1429 25.9044 21.4285 26.6186 20.7142C29.4758 15 32.333 9.28572 35.1902 3.57143C35.9044 1.42857 38.0472 0 40.19 0C42.3329 0 44.4758 1.42857 45.1901 3.57143C48.0473 9.28572 50.9043 15 53.7614 20.7142C54.4757 21.4285 55.1901 22.1429 55.9044 22.1429C62.333 22.8572 68.7615 24.2857 75.9043 25C78.7615 25 80.1901 27.1429 80.1901 29.2858ZM18.0471 32.8572C20.9043 35.7143 23.7615 39.2857 26.6186 42.1428C28.0472 43.5714 28.7616 45.7144 28.0473 47.8572C27.333 52.143 26.6186 55.7143 25.9043 60.7143C28.7615 59.2857 32.333 57.8573 35.1902 55.7144C38.7616 53.5716 42.333 53.5716 45.9044 55.7144C48.7616 57.8573 51.6186 58.5714 54.4757 60.7143C53.7615 56.4286 53.0473 52.143 52.333 47.8572C51.6187 45.7144 52.3329 43.5714 54.4757 42.1428C57.3329 39.2857 59.4758 37.143 62.3329 34.2859C62.3329 34.2859 63.0473 33.5715 63.0473 32.8572C62.333 32.8572 62.3329 32.8572 61.6186 32.8572C58.0472 32.1429 53.7614 31.4285 50.19 31.4285C48.0471 31.4285 46.6187 30 45.9044 28.5714C45.1902 27.1429 44.4758 26.4286 44.4758 25C43.0472 22.1429 41.6186 19.2859 40.19 16.4287C38.7615 20.0001 36.6187 22.8572 35.1902 26.4287C33.7616 30.0001 31.6187 31.4285 28.0473 31.4285C24.4759 32.1428 20.9043 32.8572 18.0471 32.8572Z" fill="#1D1E4E"/>
</svg>
